<?xml version="1.0" encoding="UTF-8"?>
<svg enable-background="new 0 0 534 330" version="1.1" viewBox="0 0 534 330" xml:space="preserve" xmlns="http://www.w3.org/2000/svg">
<path d="m148.54 195.79v134.84l384.65-127.91v-122.31z" fill="#e8ae24"/><g>
<path d="m534.08 79.924c-30.923 9.2802-61.855 18.529-92.766 27.848-42.388 12.78-84.767 25.589-127.14 38.432-31.856 9.6563-63.681 19.417-95.538 29.072-22.926 6.9489-45.882 13.802-69.574 20.656-49.555-22.694-98.361-45.348-146.98-68.338 12.819-4.4036 25.455-8.4703 38.3-12.188 0.33969 4.4995 0.75245 8.6649 0.5342 12.797-0.29967 5.6735 2.2817 8.8937 7.3248 11.103 14.504 6.3554 29.687 5.2837 44.754 3.9708 5.815-0.50671 11.511-2.9886 17.126-4.9574 3.4186-1.1987 5.0808-3.9133 4.9981-7.8067-0.087959-4.1428 0.42734-8.2947 0.52187-12.446 0.10241-4.4979 0.023193-8.9999 0.023193-13.621-5.1972 2.1284-9.2631 4.6695-13.632 5.4015-9.2948 1.5572-18.74 2.903-28.137 2.9943-12.047 0.11692-23.937-1.6532-33.792-10.27 0.29724-4.4679 1.979-7.4946 6.2525-8.6479 5.876-1.5857 11.629-3.8662 17.6-4.815 15.569-2.4741 30.994-1.9588 45.85 4.1892 0.7307 0.30238 1.7712 0.16669 2.5769-0.071502 6.8142-2.0146 13.489-4.9026 20.442-5.9283 6.3223-0.93264 7.5929-3.6523 7.3044-9.3687-0.44524-8.8214 2.2679-12.177 10.857-14.954 17.801-5.7556 35.689-5.2697 53.686-0.82092 2.9284 0.72391 6.2801 1.0106 9.1714 0.34669 6.2649-1.4386 12.392-3.5231 18.501-5.5668 1.7392-0.58188 3.2213-1.9325 5.0279-2.5746 0.33904 6.3397 0.085098 12.369 0.78299 18.286 0.30309 2.5696 2.0126 5.6597 4.0697 7.1697 2.8411 2.0855 6.5125 3.3071 10.008 4.1855 11.549 2.9027 23.369 3.8036 35.081 1.7782 7.0833-1.225 13.937-3.9396 20.766-6.3463 1.4564-0.51324 3.3223-2.5616 3.3654-3.9532 0.29498-9.544 0.15485-19.102 0.15485-28.971-3.5876 1.7328-6.5889 3.4264-9.7655 4.6735-11.966 4.6977-24.542 4.4781-36.987 3.5669-8.706-0.63734-17.649-1.5875-24.891-7.6263-0.56891-0.4744-1.8436-0.10242-2.856-0.5396-0.091232-6.7086 1.6264-9.4513 7.3887-11.563 17.092-6.2643 34.498-6.5437 52.173-2.802 3.8504 0.81514 8.0699 1.5179 11.83 0.78632 7.7519-1.508 15.242-4.3261 22.97-6.0055 4.976-1.0813 6.2406-3.6536 5.5866-8.2585-0.9397-6.6168 2.6096-10.571 8.4133-12.773 3.147-1.1941 6.4722-1.9124 9.6522-3.0299 0.76318-0.26819 1.2681-1.2712 1.8918-1.9363 11.688 1e-6 23.375 1e-6 35.192 0.31229 2.8521 1.1074 5.6319 1.748 8.2875 2.7258 8.8569 3.2609 13.895 5.6043 12.08 13.809-3.5134 1.421-6.6175 3.4436-10.02 4.3786-21.686 5.9584-43.071 6.4754-63.926-4.3758-0.15482 0.45541-0.50482 1.0335-0.52896 1.625-0.2775 6.7946-0.73908 13.593-0.68701 20.387 0.063538 8.2912 1.9149 10.974 10.004 13.297 6.6495 1.9096 13.508 3.376 20.375 4.1823 13.028 1.5296 25.746-0.062905 37.99-5.1426 4.8663-2.0188 6.6457-5.6635 6.917-10.468 0.18549-3.2851 0.23898-6.5776 0.68909-9.7039 2.2294 1.0129 4.0495 2.129 6.0267 2.6623 5.5177 1.4881 10.525 4.4225 16.916 2.7967 16.798-4.2735 33.611-3.1755 49.865 2.729 5.9242 2.152 8.9311 4.8158 7.3163 10.788-24.613 15.017-49.142 11.575-74.496 1.5702 0 7.2272 0.42984 15.005-0.13361 22.71-0.46545 6.3653 2.4586 9.9608 7.8369 11.662 6.14 1.9428 12.445 3.8918 18.807 4.4984 14.141 1.3485 28.211 0.87736 41.62-4.9324 4.4945-1.9473 6.062-5.015 5.9651-9.7781-0.093445-4.5943 0.6152-9.205 1.3062-13.662 7.6531 3.0765 15.015 5.9027 22.276 8.9696 5.8637 2.477 11.605 5.2443 17.4 7.8828m-278.42 70.064c2.8314-0.005051 5.6818 0.19974 8.4909-0.053451 9.4201-0.84902 18.906-1.3435 27.489-6.1694 3.5861-2.0165 5.4158-4.6643 5.3651-8.7862-0.08609-6.9945 0.003326-13.991-0.063812-20.986-0.011688-1.219-0.43054-2.4342-0.62387-3.4536-24.947 10.959-49.269 11.62-74.311-0.87144 0 7.868 0.15742 15.615-0.053085 23.351-0.1506 5.5345 2.0216 9.8798 7.1384 11.333 8.3956 2.3836 17.065 3.8022 26.569 5.6364m67.5-35.553c13.4 6.8649 27.805 7.4139 42.293 6.0311 6.8542-0.65422 13.664-2.5366 20.294-4.5285 5.0325-1.512 7.7317-5.1495 7.3698-10.969-0.40182-6.4618-0.060944-12.968-0.1199-19.454-0.012298-1.3514-0.35934-2.6998-0.52402-3.8528-24.992 11.267-49.163 11.091-73.634-0.50558-0.17596 0.53857-0.71271 1.43-0.72134 2.3265-0.070557 7.3174-0.46481 14.672 0.16086 21.936 0.25467 2.9567 2.7897 5.717 4.8823 9.017m-107.15-16.187v-22.365c-25.312 11.274-49.722 11.126-74.968 0.12914 0 7.6323 0.47473 14.611-0.13153 21.494-0.62491 7.0949 2.6314 10.943 8.6831 13.275 2.1662 0.8349 4.3626 1.6366 6.6062 2.2183 11.231 2.9116 22.686 2.8086 34.078 1.7276 5.7279-0.54351 11.463-2.0101 16.951-3.8051 5.3573-1.7523 9.3092-5.2607 8.7814-12.674m-94.037 61.176c0.023247 10.69 0.97671 12.341 10.203 15.442 11.343 3.8132 23.133 5.06 34.944 3.837 8.6555-0.89626 17.73-1.2784 25.16-6.8815 1.4778-1.1144 3.4012-2.9021 3.4534-4.4359 0.31976-9.3962 0.16005-18.809 0.16005-27.906-24.79 11.084-49.067 11.419-73.93-0.51837 0 6.6058 0 13.046 0.009712 20.463z" fill="#EFC14D"/>


<path d="m1 128.47c0-0.46866 0.45088-0.45705 0.67301-0.49733 49.028 22.613 97.834 45.267 147 67.978 0.34702 44.743 0.33366 89.428 0.32341 134.58-1.0636 0.46866-2.1302 0.46866-3.265 0.20434-3.9379-2.5775-7.6987-5.1016-11.696-7.1692-23.053-11.925-46.151-23.765-69.256-35.589-18.487-9.4614-36.998-18.877-55.521-28.268-2.6887-1.3632-5.503-2.4787-8.2592-3.7089 1e-6 -42.354 1e-6 -84.708 1e-6 -127.53z" fill="#ECCA6A"/>


<path d="m535 202.53c0 0.46866-0.49835 0.4422-0.73718 0.37064-0.24646-33.821-0.26117-67.57-0.23987-101.32 0.001038-1.6378 0.31818-3.2755 0.7326-5.2476 0.24445 35.02 0.24445 70.374 0.24445 106.2z" fill="#ECBA3C"/>
<path d="m534.04 80.359c0.012268-0.47044 0.47864-0.36192 0.71802-0.36066 0.23938 4.3582 0.23938 8.7151 0.23938 13.537-0.32324-3.9254-0.64648-8.3155-0.9574-13.176z" fill="#ECBA3C"/>
<path d="m407.9 159c0.15192-1.4843 0.3038-2.9686 0.45572-4.4528-1.708 0.11494-3.9916-0.42093-5.0071 0.47708-2.2808 2.017-3.7798 4.8884-5.8877 7.1397-1.6978 1.8133-3.822 3.2273-6.44 4.8643-1.4892 0.30811-2.2954 0.5703-3.1017 0.83249-9.0384 1.9163-4.4064-6.2279-6.6754-9.3709-3.8946-0.36618-5.6788 1.146-5.2844 5.087 0.14764 1.4753-0.013672 2.9816-0.26175 5.1945-1.1302 3.1952-2.0327 5.6696-2.9353 8.1441-0.84732 1.3557-1.6946 2.7114-2.5419 4.0671 0.17987 0.38432 0.35977 0.76863 0.53964 1.153 1.8881-0.45032 3.7553-1.0399 5.668-1.3257 6.6256-0.99034 13.264-2.5787 19.903-2.6096 7.187-0.033432 9.4127 6.8645 6.7872 15.24-0.76877 2.4525-2.6199 4.5656-4.3905 7.3166-1.2589 1.3723-2.1021 2.2623-2.9454 3.1523-2.6913 1.7173-5.3825 3.4346-8.6737 5.1616-0.76471-0.024994-0.92938-0.059632-1.0941-0.094254 0.67825-0.69478 1.3565-1.3895 2.3451-2.438 0.44324-0.59085 0.57617-0.82796 0.70908-1.0651-0.42682 0.090836-0.85364 0.18169-1.2805 0.27255-5.1203 1.8244-10.214 3.7275-15.372 5.4389-2.4648 0.81779-5.0503 1.2717-7.9906 1.4892-0.40945-7.1761-0.40945-13.951-0.40945-20.726-0.68484-0.15247-1.3697-0.30493-2.0546-0.4574-1.8456 3.9305-4.1786 7.713-5.4274 11.825-2.0924 6.8898 0.15292 9.9474 7.4724 11.485 2.9227-0.2742 5.874-0.38002 8.7596-0.87178 2.6797-0.45662 5.2891-1.3251 7.9294-2.0123 0.16031 0.47176 0.32065 0.94353 0.48099 1.4153-3.1695 1.1111-6.339 2.2221-10.218 3.486-1.4563 0.21059-2.2032 0.26836-2.9502 0.32611-1.6638-0.042938-3.3554 0.091354-4.986-0.16382-4.0351-0.63146-5.4936 1.2561-5.4542 5.671-0.30701 1.2239-0.42838 1.7854-0.54974 2.3468-1.9301 3.4152-3.8602 6.8304-6.2142 10.733-1.7637 1.96-3.1036 3.4327-4.4435 4.9054 0.28824 0.50346 0.57645 1.0069 0.86468 1.5104 1.9773-0.61075 3.9545-1.2215 5.9318-1.8322 1.9539-2.3839 4.1129-4.6309 5.8162-7.1822 2.9767-4.4585 6.7914-7.0087 12.521-6.7504 0.18918 1.3201 0.37036 2.4357 0.50537 3.5568 0.29355 2.4373-0.91162 6.0868 3.3033 5.8283 3.5294-0.21645 6.1251-2.319 6.6663-6.2397 0.35468-2.5697 0.65219-5.1813 1.4046-7.643 0.25168-0.82347 1.8319-1.2408 3.2527-1.8187 0.44778 0.025147 0.62079 0.24764 0.62079 0.24764-0.73831 2.6387-1.7589 5.2361-2.1514 7.9253-0.65335 4.4766-4.4011 8.7772-8.9052 9.6416-5.0477 0.96875-6.5052-0.16058-7.2514-5.3023-0.16904-1.1647-1.0064-3.211-1.4187-3.1819-1.3407 0.094361-3.0117 0.62807-3.8566 1.6002-1.9506 2.2442-3.4993 4.8395-5.1949 7.3035-3.4175 4.9661-8.1219 6.3204-13.948 5.5488-2.2239-0.29453-4.7579 0.30725-6.9053 1.1361-8.2021 3.1658-16.07 7.4637-24.496 9.7227-14.18 3.8016-22.891-2.8404-21.769-17.579 0.77783-10.219 4.1024-20.489 7.7616-30.181 4.747-12.573 10.611-24.778 20.09-34.776 8.6223-9.0941 19.554-13.146 31.649-14.042 6.3347-0.46915 12.774 0.67175 19.155 0.53793 3.0533-0.064026 6.1009-1.3281 9.1131-2.1826 3.6698-1.041 5.6964-0.18524 5.997 4.0381 0.32178 4.5209 3.3494 6.1559 7.045 3.5442 2.4746-1.7488 4.451-4.4483 6.095-7.0706 2.6797-4.2742 6.4318-5.4185 11.104-5.0068 3.2471 0.28612 4.1363 1.8081 2.6706 4.6582-0.68256 1.3272-1.7583 2.4737-2.3072 3.8421-0.55746 1.3897-0.68561 2.9516-1.0017 4.4382 1.6639-0.02739 3.3387 0.04805 4.9869-0.12718 0.7807-0.083023 1.5104-0.64525 2.7275-0.93779 0.4642 0.052597 0.65604 0.26245 0.48978 0.51067-0.80615 1.0197-1.446 1.7912-2.0859 2.5627-2.3181 0.33017-4.6363 0.66032-7.5678 0.75766-1.1657-0.36879-1.718-0.50475-2.2704-0.6407 0.31387-1.7711 0.62778-3.5422 1.2699-5.7974 0.76154-1.0743 1.1949-1.6646 1.6282-2.2549m-38.018 29.091c6.6672-2.312 13.334-4.624 20.002-6.9359-0.16834-0.43805-0.33667-0.8761-0.505-1.3141-7.6864 0.35263-14.741 2.4566-21.074 7.9937-0.39896 0.1889-0.79791 0.37779-1.1968 0.5667 0.12357 0.19884 0.24716 0.39766 0.37073 0.5965 0.54675-0.28041 1.0935-0.56082 2.4031-0.90678m-19.874 33.171c-1.4792-12.898 2.0567-24.288 10.074-34.449 2.0453-2.5924 3.6351-5.5746 5.2217-8.4932 6.7009-12.327 4.0954-16.564-9.9372-16.306-0.49921 0.009186-1-8.08e-4 -1.4973 0.036194-15.943 1.1867-29.781 6.3746-37.458 21.556-5.4676 10.813-10.726 21.817-14.885 33.173-2.3959 6.5426-3.1325 13.935-3.3291 20.98-0.25198 9.0342 6.6985 14.663 14.97 12.928 10.211-2.1413 19.74-6.0472 28.006-12.535 5.1281-4.0247 8.9186-8.9755 8.8339-16.89m43.137-23.167c1.3329 0.2791 2.9731 1.193 3.9433 0.72322 3.483-1.6866 5.8353-10.846 3.998-14.413-1.9446-3.7756-3.8211-3.9104-6.7557-0.82835-1.0798 1.1341-2.6775 1.8878-4.1693 2.4942-3.5341 1.4366-7.1825 2.5934-10.708 4.0497-1.2701 0.52472-2.3199 1.5827-3.4702 2.3973 0.26556 0.5733 0.5311 1.1466 0.79666 1.7199 5.1232-1.6964 10.246-3.3927 15.37-5.0891 0.39838 0.48448 0.79675 0.96896 1.1952 1.4534-1.3085 1.3734-2.3795 3.2159-3.9745 4.0232-3.3912 1.7163-7.1068 2.7809-10.574 4.3647-0.99368 0.4539-1.5928 1.7716-2.3729 2.6932 1.2707 0.26822 2.6914 1.0405 3.7854 0.71498 4.1277-1.2283 8.1492-2.8135 12.936-4.3031m-23.618-14.725s0.077301 0.12138 0 0z" fill="#F3D46C"/>
<path d="m426.9 197c1.7746-2.8267 2.5947-6.3531-0.41854-6.2089-2.6405 0.12645-6.2411-9.5256-8.7994-8.9176-1.6991 0.40378-2.0617 8.1395-4.15 12.445-1.047 2.1584-3.8168 2.1708-4.8178 2.5423-2.8906-6.8349-1.9744-13.735-1.0382-20.488 0.18698-1.3488 2.905-2.3947 4.5114-3.4609 0.77648-0.51536 6.7975 0.0382 13.475 3.9103 1.7437-1.2041 4.0239-5.0743 4.5092-6.6629 1.7694-5.7917 6.8645-6.3013 11.251-7.8105 0.80261-0.27619 3.3291 1.5548 3.395 2.5259 0.34725 5.1241 0.71026 10.374-0.10657 15.389-0.33264 2.0422-3.6283 3.6018-6.6196 6.3344-0.76196-3.7276-1.1394-5.5741-1.7754-8.6853l-8.4961 12.721c3.8259 2.0371 4.0213 6.3463-0.86692 9.1042-3.3133 1.8693-7.4851 2.2024-11.256 3.2804-2.1462 0.61355-4.466 0.9956-6.3361 2.1071-2.4724 1.4695-2.507 3.3348-0.29157 5.6316 1.2229 1.2678 1.3645 3.5787 1.6265 5.7768-2.7684-2.3074-5.1697-4.9723-7.6202-7.6916 2.0922-2.44 3.9856-4.648 5.8789-6.856 4.1409-0.4682 8.2819-0.9364 13.091-1.6941 2.0637-1.2901 3.4596-2.2907 4.8555-3.2913z" fill="#f3d46c"/>
<path d="m272.31 250.35c-1.0089 0.12097-1.9337 0.3912-2.2436 0.069367-3.092-3.2113-0.9295-13.046 3.1906-14.674 2.3089-0.91277 4.6453-1.7646 7.0058-2.5315 0.56345-0.18308 1.2728 0.082871 1.8555 0.1368 2.9999 10.642 1.7777 12.796-9.8083 17z" fill="#F4D56E"/>

<path d="m283.09 222.37c0.47794 1.6463 1.226 4.0777 0.6264 4.4749-3.7336 2.4733-7.6909 4.6624-11.769 6.517-0.82861 0.37683-3.1043-0.77606-3.591-1.772-0.4714-0.96463 0.11798-2.9373 0.90814-3.9439 3.3982-4.329 7.818-6.5117 13.826-5.2761z" fill="#F2D167"/>
<path d="m408.6 202.01c-1.5344 2.186-3.4277 4.394-5.5199 6.8339 2.4505 2.7193 4.8518 5.3842 7.5534 8.0161 0.13113 1.1996-0.037903 2.4322-0.22104 3.7674-3.1822-1.2311-10.101-10.17-8.9671-12.042 1.576-2.6019 4.4674-4.407 7.1547-6.5752z" fill="#E9AF25"/>
<path d="m425.09 165.15c0.73892-1.3523 1.4778-2.7046 2.2167-4.057-1.6218-0.097306-3.3651-0.60719-4.831-0.1754-1.4545 0.42844-2.6298 1.805-4.429 2.9739-0.50159 0.20816-0.95474 0.23717-0.95474 0.23717s-0.19183-0.20985-0.29544-0.31381c3.0814-2.0257 6.1559-4.1951 9.5272-5.6997 0.87228-0.38933 3.3119 0.99928 3.8576 2.1352 0.47632 0.99133-0.3251 3.1094-1.2339 4.133-1.364 1.5363-3.3152 2.5511-5.3463 3.8814-0.32956 0.093719-0.51245-0.1498-0.4425-0.51054 0.69043-1.1086 1.3109-1.8565 1.9314-2.6044z" fill="#F3D46C"/>
<path d="m386.99 219.98c6.1392-7.4545 10.845-0.66487 15.893 2.8213-2.1208-0.40248-4.808-0.13532-6.2426-1.3489-2.8532-2.4138-5.5688-2.2877-9.0249-1.2021-0.36325 0.061248-0.53626-0.16124-0.62564-0.27019z" fill="#F3D46C"/></g><g fill="#E9AF25">
<path d="m352.98 239.99c-1.8015 0.93252-3.7788 1.5433-5.7561 2.154-0.28824-0.50346-0.57645-1.0069-0.86468-1.5104 1.3399-1.4727 2.6798-2.9453 4.293-4.6049 0.8996 1.0886 1.5258 2.364 2.3278 3.9612z"/>
<path d="m373.12 176.86c0.54257-2.4151 1.4451-4.8895 2.5684-7.6361 2.5605 3.3189 0.62225 5.5859-2.5684 7.6361z"/>
<path d="m424.84 164.91c-0.36633 0.97958-0.98682 1.7275-1.7709 2.7161-0.56631 0.31761-0.96902 0.39448-1.6719 0.53879-0.15894-2.1203-0.33447-4.619 3.4429-3.2549z"/>
<path d="m426.53 197c-1.0281 0.99644-2.424 1.997-4.1646 3.0356 1.0358-0.98518 2.4163-2.0083 4.1646-3.0356z"/>
<path d="m385.81 209.22c0.36835-0.20543 0.53302-0.17079 0.94385-0.079041-0.21851 1.2044-0.68317 2.3517-1.1478 3.499-0.44479-0.20387-0.88962-0.40774-1.3344-0.61162 0.44492-0.85609 0.88983-1.7122 1.5384-2.8083z"/>
<path d="m396.14 203.92c0.48282-0.9015 1.3261-1.7915 2.413-2.8628 1.9655 2.7063-0.40613 2.5179-2.413 2.8628z"/>
<path d="m368.1 217.43c0.6524-0.34048 1.3993-0.39825 2.5213-0.44769-0.5589 0.24901-1.4928 0.4897-2.5213 0.44769z"/>
<path d="m388.14 168.08c0.58722-0.47878 1.3935-0.74097 2.5254-0.97096-0.55164 0.41731-1.429 0.80243-2.5254 0.97096z"/>
<path d="m416.93 164.37c0.16626-0.24822 0.61942-0.27722 0.84637-0.27235-0.58224 0.94531-1.3914 1.8857-2.5665 2.8306 0.27408-0.76704 0.91397-1.5385 1.7201-2.5583z"/>
<path d="m407.61 159.01c-0.13791 0.5762-0.57123 1.1665-1.233 1.9149 0.16022-0.52818 0.54889-1.2145 1.233-1.9149z"/>
<path d="m405.07 167.31c0.49023-0.1208 1.0425 0.015152 1.8056 0.34773-0.44067 0.10075-1.0921 0.004883-1.8056-0.34773z"/>
<path d="m357.29 224.93c-0.14462-0.49579-0.023254-1.0572 0.26022-1.8596 0.10998 0.43735 0.057892 1.1157-0.26022 1.8596z"/></g><g fill="#E9AF24">
<path d="m412.56 17.847c0.33115 4.4342 0.39114 8.7697 0.46289 13.561-0.1008 3.7449-0.1543 7.0375-0.33978 10.323-0.2713 4.8042-2.0507 8.449-6.917 10.468-12.245 5.0797-24.962 6.6722-37.99 5.1426-6.8666-0.80624-13.726-2.2727-20.375-4.1823-8.0889-2.3229-9.9402-5.0059-10.004-13.297-0.052063-6.7938 0.40952-13.592 0.68701-20.387 0.02414-0.59142 0.37415-1.1695 0.52896-1.625 20.856 10.851 42.24 10.334 63.926 4.3758 3.4029-0.93497 6.507-2.9576 10.02-4.3786z"/>
<path d="m255.18 149.98c-9.0288-1.8298-17.698-3.2485-26.094-5.6321-5.1168-1.4527-7.289-5.798-7.1384-11.333 0.21051-7.7366 0.053085-15.483 0.053085-23.351 25.042 12.491 49.364 11.831 74.311 0.87144 0.19333 1.0194 0.61218 2.2345 0.62387 3.4536 0.067138 6.9949-0.022278 13.991 0.063812 20.986 0.050781 4.1219-1.779 6.7697-5.3651 8.7862-8.5824 4.8259-18.068 5.3204-27.489 6.1694-2.8091 0.25319-5.6595 0.0484-8.9656 0.049148z"/>
<path d="m322.86 114.21c-1.7951-3.0748-4.3301-5.8351-4.5847-8.7918-0.62567-7.264-0.23142-14.619-0.16086-21.936 0.008636-0.89649 0.54538-1.7879 0.72134-2.3265 24.471 11.597 48.643 11.773 73.634 0.50558 0.16467 1.153 0.51172 2.5014 0.52402 3.8528 0.05896 6.4863-0.28192 12.993 0.1199 19.454 0.36194 5.8199-2.3372 9.4574-7.3698 10.969-6.6298 1.9919-13.44 3.8743-20.294 4.5285-14.487 1.3828-28.892 0.83377-42.59-6.2563z"/>
<path d="m216.01 98.709c0.52853 6.953-3.4233 10.461-8.7806 12.214-5.4878 1.795-11.223 3.2616-16.951 3.8051-11.392 1.081-22.847 1.184-34.078-1.7276-2.2436-0.58161-4.4399-1.3834-6.6062-2.2183-6.0517-2.3325-9.308-6.1802-8.6831-13.275 0.60626-6.8835 0.13153-13.862 0.13153-21.494 25.246 10.997 49.656 11.145 74.968-0.12914 0 7.3058 0 14.835-7.78e-4 22.826z"/>
<path d="m40.378 115.41c-0.25731-4.0763-0.30637-7.8037-0.28187-11.992 9.858 7.7739 21.748 9.544 33.795 9.4271 9.3967-0.09121 18.842-1.437 28.137-2.9943 4.369-0.732 8.4349-3.2732 13.632-5.4015 0 4.6213 0.079216 9.1234-0.023193 13.621-0.094528 4.1515-0.60982 8.3034-0.52187 12.446 0.082672 3.8934-1.5795 6.6079-4.9981 7.8067-5.6146 1.9688-11.311 4.4507-17.126 4.9574-15.067 1.3129-30.25 2.3846-44.754-3.9708-5.0431-2.2098-7.6244-5.4299-7.3248-11.103 0.21825-4.132-0.19451-8.2974-0.5342-12.797z"/>
<path d="m237.37 54.359c-0.25768-2.4028-0.30864-4.4496-0.28297-6.9286 1.0233-0.41083 2.298-0.78282 2.8669-0.30842 7.2419 6.0388 16.185 6.989 24.891 7.6263 12.446 0.91111 25.022 1.1308 36.987-3.5669 3.1766-1.2471 6.1779-2.9406 9.7655-4.6735 0 9.8696 0.14014 19.427-0.15485 28.971-0.04303 1.3916-1.909 3.44-3.3654 3.9532-6.8293 2.4067-13.683 5.1213-20.766 6.3463-11.712 2.0254-23.532 1.1245-35.081-1.7782-3.495-0.87841-7.1664-2.1-10.008-4.1855-2.0571-1.51-3.7666-4.6001-4.0697-7.1697-0.69789-5.917-0.44395-11.946-0.78297-18.286z"/>
<path d="m493.5 51.003c0.3898 3.6049 0.45206 7.3061 0.54242 11.465-0.32812 5.0607-1.0368 9.6714-0.94333 14.266 0.096924 4.7631-1.4706 7.8308-5.9651 9.7781-13.409 5.8098-27.48 6.2809-41.62 4.9324-6.3612-0.60663-12.667-2.5556-18.807-4.4984-5.3782-1.7017-8.3023-5.2971-7.8369-11.662 0.56345-7.705 0.13361-15.483 0.13361-22.71 25.354 10.004 49.883 13.447 74.496-1.5702z"/>
<path d="m121.97 158.94c-0.00486-6.9286-0.00486-13.369-0.00486-19.975 24.864 11.938 49.14 11.602 73.93 0.51837 0 9.0976 0.15971 18.51-0.16005 27.906-0.0522 1.5339-1.9756 3.3215-3.4534 4.4359-7.4301 5.6032-16.505 5.9853-25.16 6.8815-11.811 1.223-23.601-0.023773-34.944-3.837-9.2258-3.1015-10.179-4.7526-10.207-15.931z"/>
</g><g><path d="m350.02 221.72c0.071136 7.453-3.7195 12.404-8.8475 16.429-8.2663 6.4878-17.795 10.394-28.006 12.535-8.2718 1.7346-15.222-3.8943-14.97-12.928 0.19653-7.0456 0.9332-14.438 3.3291-20.98 4.1585-11.356 9.4172-22.36 14.885-33.173 7.6766-15.181 21.515-20.369 37.458-21.556 0.49725-0.037002 0.99805-0.027008 1.4973-0.036194 14.033-0.25851 16.638 3.9786 9.9372 16.306-1.5866 2.9186-3.1764 5.9008-5.2217 8.4932-8.0175 10.162-11.553 21.551-10.061 34.911m-27.246-16.54c-6.9345 3.1351-13.376 6.9302-17.064 13.966-1.8414 3.513-2.8172 7.2791-0.033356 10.815 2.6221 3.3306 6.3994 3.867 9.9886 2.5074 8.1888-3.102 16.426-6.2272 24.214-10.187 6.0128-3.0566 6.4015-5.7525 3.8945-13.83-5.3622 2.152-10.721 4.1795-15.938 6.5228-0.82599 0.37097-1.0125 2.1656-1.4947 3.302 1.1347 0.26891 2.2721 0.75978 3.4033 0.74583 1.1908-0.014648 2.3756-0.51195 3.563-0.79836 0.22864 0.55827 0.45724 1.1165 0.68588 1.6748-3.5971 1.6216-7.1058 3.5171-10.838 4.7201-1.3559 0.43707-3.9667-0.28447-4.7069-1.3659-0.91971-1.3436-1.159-3.8779-0.53104-5.4274 2.4067-5.9392 6.8042-8.7497 13.544-9.026 4.2833-0.17558 8.4806-2.4488 12.716-3.7814-0.081909-0.91548-0.16379-1.8309-0.24567-2.7464-2.507-0.35646-5.1205-1.3387-7.4977-0.93382-4.3939 0.74824-8.6494 2.3092-13.661 3.8423m30.592-20.244c1.769-1.4068 3.5379-2.8136 5.3069-4.2205-0.27084-0.39064-0.54169-0.7813-0.81253-1.1719 1.5777-0.55603 3.1555-1.1121 5.604-1.975-1.8615-1.1717-2.7301-1.7184-3.7428-2.3558 1.3332-1.2281 2.4781-2.2829 4.0423-3.7238-1.8111-0.41508-3.0099-0.68982-4.2321-0.96994 0.2049-1.2436 0.37192-2.2574 0.59082-3.5858-3.0085 0.51298-6.0902 4.3427-7.5118-1.2707-2.883 1.751-4.8557 5.0461-8.4513 2.6435-0.24573-0.1642-1.1299 0.52386-1.6564 0.90045-2.4464 1.7499-4.8715 3.5297-7.7887 5.6512 1.7329 3.9339-3.1758 3.604-5.8937 5.3569 0.91696 1.1213 1.6269 1.9894 2.2635 2.7679-1.3817 1.1406-2.4954 2.0598-3.609 2.9791 0.18954 0.27914 0.37909 0.5583 0.56863 0.83746 1.3961-0.16335 2.7922-0.32669 4.6403-0.54291-0.48914 1.6718-0.85223 2.9128-1.528 5.2224 2.587-1.3556 4.2151-2.2086 5.9595-3.1227 0.26245 1.2657 0.46835 2.2588 0.8486 4.0926 4.1172-5.0629 10.971-2.8142 15.402-7.5125m-23.736 10.3c-0.049621-3.1842-1.9784-4.8613-4.7814-4.0702-3.8207 1.0783-7.761 2.5017-10.931 4.7787-1.4832 1.0656-1.2806 4.4779-1.842 6.8266 2.4883 0.36699 5.5238 1.8077 7.3507 0.87665 3.7611-1.9167 6.8764-5.1008 10.203-8.4118z" fill="#E9AF25"/>


<path d="m369.04 188.06c-0.46548 0.3806-1.0122 0.66101-1.559 0.94142-0.12357-0.19884-0.24716-0.39766-0.37073-0.5965 0.39893-0.1889 0.79788-0.37779 1.4415-0.60617 0.24463-0.039475 0.40692 0.16107 0.48822 0.26125z" fill="#E9B128"/>
<path d="m387.92 205.9c0.2981-0.2438 0.72492-0.33466 1.1517-0.42549-0.1329 0.23711-0.26584 0.47421-0.58319 0.79871-0.18442 0.087372-0.43982-0.22026-0.56854-0.37322z" fill="#E8AE24"/>
<path d="m369.57 183.43c0.038666 0.060699-0.038635-0.060684 0 0z" fill="#E9AF25"/>
<path d="m323.13 205.03c4.6625-1.3777 8.918-2.9387 13.312-3.6869 2.3773-0.40483 4.9908 0.57736 7.4977 0.93382 0.081879 0.91548 0.16376 1.8309 0.24567 2.7464-4.2359 1.3326-8.4332 3.6058-12.716 3.7814-6.7402 0.27628-11.138 3.0868-13.544 9.026-0.62793 1.5495-0.38867 4.0838 0.53104 5.4274 0.7402 1.0814 3.351 1.8029 4.7069 1.3659 3.732-1.203 7.2407-3.0985 10.838-4.7201-0.22864-0.55827-0.45724-1.1165-0.68588-1.6748-1.1874 0.28641-2.3722 0.78371-3.563 0.79836-1.1312 0.013947-2.2686-0.47693-3.4033-0.74583 0.48218-1.1364 0.66873-2.9311 1.4947-3.302 5.2171-2.3432 10.576-4.3708 15.938-6.5228 2.507 8.0779 2.1183 10.774-3.8945 13.83-7.7886 3.9594-16.026 7.0846-24.214 10.187-3.5892 1.3596-7.3664 0.82324-9.9886-2.5074-2.7838-3.536-1.8081-7.3022 0.033356-10.815 3.688-7.0356 10.129-10.831 17.413-14.121z" fill="#F3D56D"/>
<path d="m352.98 184.93c-4.0455 4.7086-10.9 2.4598-15.017 7.5227-0.38025-1.8338-0.58615-2.8269-0.8486-4.0926-1.7444 0.91403-3.3725 1.7671-5.9595 3.1227 0.67578-2.3097 1.0389-3.5507 1.528-5.2224-1.8481 0.21622-3.2442 0.37956-4.6403 0.54291-0.18954-0.27916-0.37909-0.55832-0.56863-0.83746 1.1136-0.91928 2.2273-1.8385 3.609-2.9791-0.63666-0.77855-1.3466-1.6466-2.2635-2.7679 2.718-1.7529 7.6266-1.423 5.8937-5.3569 2.9173-2.1215 5.3423-3.9013 7.7887-5.6512 0.52652-0.37659 1.4106-1.0647 1.6564-0.90045 3.5956 2.4027 5.5683-0.89244 8.4513-2.6435 1.4216 5.6134 4.5032 1.7837 7.5118 1.2707-0.2189 1.3284-0.38592 2.3422-0.59082 3.5858 1.2223 0.28012 2.421 0.55486 4.2321 0.96994-1.5642 1.4409-2.7091 2.4957-4.0423 3.7238 1.0127 0.6374 1.8813 1.1841 3.7428 2.3558-2.4485 0.86292-4.0263 1.4189-5.604 1.975 0.27084 0.39064 0.54169 0.7813 0.81253 1.1719-1.769 1.4068-3.5379 2.8136-5.6918 4.2103m-13.777-0.35855c3.4763-0.68366 7.442-0.56576 10.278-2.2978 2.3831-1.4554 3.4503-5.0653 5.1-7.7214-2.7993-0.49423-5.6576-1.613-8.3861-1.3558-6.1369 0.57855-10.143 6.6943-6.9919 11.375z" fill="#F3D36B"/>
<path d="m329.66 195.56c-3.3539 2.9868-6.4692 6.1708-10.23 8.0876-1.8269 0.93102-4.8623-0.50966-7.3507-0.87665 0.5614-2.3487 0.35876-5.761 1.842-6.8266 3.1695-2.277 7.1098-3.7004 10.931-4.7787 2.8029-0.79108 4.7318 0.88596 4.8085 4.3944m-11.104 1.5145c0.47708 0.91995 0.95416 1.8399 1.4313 2.7598 1.429-1.0438 2.8579-2.0877 4.2868-3.1315-0.35614-0.57013-0.71228-1.1402-1.0685-1.7104-1.3946 0.50221-2.7892 1.0044-4.6496 2.082z" fill="#F3D269"/>
<path d="m338.86 184.38c-2.8-4.4909 1.2064-10.607 7.3433-11.185 2.7285-0.25722 5.5868 0.86159 8.3861 1.3558-1.6498 2.6561-2.717 6.266-5.1 7.7214-2.836 1.732-6.8018 1.6141-10.629 2.1079z" fill="#E9AF26"/>
<path d="m318.79 196.79c1.6275-0.78992 3.0221-1.2921 4.4167-1.7943 0.35617 0.57013 0.71231 1.1402 1.0685 1.7104-1.4289 1.0438-2.8578 2.0877-4.2868 3.1315-0.47711-0.91994-0.95419-1.8399-1.1984-3.0475z" fill="#E9B027"/>
</g></svg>
