<?xml version="1.0" encoding="UTF-8" standalone="no"?>
<svg
   version="1.1"
   x="0px"
   y="0px"
   viewBox="0 0 34.349171 30.806769"
   xml:space="preserve"
   id="svg3"
   sodipodi:docname="noun-medal-1225623.svg"
   inkscape:version="1.3.2 (091e20e, 2023-11-25)"
   xmlns:inkscape="http://www.inkscape.org/namespaces/inkscape"
   xmlns:sodipodi="http://sodipodi.sourceforge.net/DTD/sodipodi-0.dtd"
   xmlns="http://www.w3.org/2000/svg"
   xmlns:svg="http://www.w3.org/2000/svg"><defs
     id="defs3" /><sodipodi:namedview
     id="namedview3"
     pagecolor="#ffffff"
     bordercolor="#000000"
     borderopacity="0.25"
     inkscape:showpageshadow="2"
     inkscape:pageopacity="0.0"
     inkscape:pagecheckerboard="0"
     inkscape:deskcolor="#d1d1d1"
     inkscape:zoom="17.802593"
     inkscape:cx="13.172238"
     inkscape:cy="18.255767"
     inkscape:window-width="2560"
     inkscape:window-height="1376"
     inkscape:window-x="0"
     inkscape:window-y="0"
     inkscape:window-maximized="1"
     inkscape:current-layer="svg3" /><path
     d="M 27.61031,4.5368268 V 0.22849999 H 6.5473792 V 4.5368268 H 0.22849999 v 6.2231382 c 0,3.25518 2.58499611,5.840176 5.84017631,5.840176 h 1.3403683 c 1.4361089,3.350921 4.4998074,5.840177 8.1379504,6.41462 v 3.25518 c -2.872218,0.478703 -5.361473,2.010553 -6.9890633,4.308327 H 25.791238 c -1.62759,-2.297774 -4.116845,-3.925364 -6.989063,-4.308327 v -3.25518 c 3.733883,-0.574443 6.797582,-3.063699 8.137951,-6.41462 h 1.340368 c 3.25518,0 5.840176,-2.584996 5.840176,-5.840176 V 4.5368268 Z M 5.9729357,13.344961 c -1.4361089,0 -2.5849961,-1.148887 -2.5849961,-2.584996 V 7.6962664 h 3.1594396 v 4.7870296 c 0,0.287222 0,0.574443 0,0.861665 z M 30.769749,10.759965 c 0,1.436109 -1.148887,2.584996 -2.584996,2.584996 H 27.61031 c 0,-0.287222 0,-0.574443 0,-0.861665 V 7.6962664 h 3.063699 v 3.0636986 z"
     id="path2"
     style="fill:currentColor;fill-opacity:1;stroke:currentColor;stroke-width:0.457;stroke-linecap:round;stroke-linejoin:round;stroke-miterlimit:4;stroke-dasharray:none;stroke-opacity:1" /></svg>
