<?xml version="1.0" encoding="UTF-8"?>
<svg version="1.1" viewBox="0 0 95 121.99" xml:space="preserve" xmlns="http://www.w3.org/2000/svg"><g transform="translate(-65.683 -113.89)"><path d="m135.78 185.05c-4.0379-3.396-8.8613-7.0718-17.04-6.8626-14.851 0.37981-15.108 9.8073-23.702 9.8289-3.2769 8e-3 -5.587-1.5011-7.7251-3.345l-20.148 41.796c0.01548 0.0839-1.8723 3.3041 0.07855 6.4983 1.4354 2.3502 4.6669 2.2407 4.6669 2.2407h77.175c0.10001-0.0679 5.3909 0.32033 7.4099-1.2165 1.4409-1.0965 1.5851-1.9482 0.47336-5.0431-0.95289-2.6526-12.107-25.429-21.188-43.897z" fill="#2692fe88"/><g fill="none" stroke="currentColor" stroke-linecap="round" stroke-linejoin="round" stroke-width="4"><path d="m96.945 114.57c-0.63603 0-1.1482 0.5117-1.1482 1.1477s0.51222 1.1482 1.1482 1.1482h1.109l-0.04031 42.517c0.0062 2.1003-0.10884 3.3156-0.77618 4.7l-30.068 62.376c0.01548 0.0839-1.8723 3.3041 0.07855 6.4983 1.4354 2.3502 4.6669 2.2407 4.6669 2.2407h77.175c0.10001-0.0679 5.3909 0.32033 7.4099-1.2165 1.4409-1.0965 1.5851-1.9482 0.47336-5.0431-1.4535-4.0461-31.746-65.363-31.746-65.363-0.61449-1.3629-0.84373-1.4764-0.65009-3.3574v-43.352h0.82321c0.63603 0 1.1477-0.51222 1.1477-1.1482s-0.5117-1.1477-1.1477-1.1477z"/><path d="m104.83 119.75h-6.2323"/><path d="m104.95 126.66h-6.1194"/><path d="m104.74 133.65h-6.1194"/><path d="m104.74 140.92h-6.1194"/><path d="m104.74 148.05h-6.1194"/><path d="m104.74 155.69h-6.1194"/></g></g></svg>
