<?xml version="1.0" encoding="UTF-8"?>
<!-- Created with Inkscape (http://www.inkscape.org/) -->
<svg version="1.1" viewBox="0 0 388.09 388.12" xmlns="http://www.w3.org/2000/svg" xmlns:xlink="http://www.w3.org/1999/xlink">
 <defs>
  <clipPath id="clipPath8">
   <path transform="translate(-383.66 -91.61)" d="M 0,306.81 H 448.54 V 0 H 0 Z"/>
  </clipPath>
 </defs>
 <g transform="translate(-146.28 -20.963)">
  <path transform="matrix(1.3333 0 0 -1.3333 511.55 286.93)" d="m-138.43 199.48c-4.109 6e-3 -7.444-3.3192-7.4502-7.4282l-0.03809-25.529c-2.1e-4 -3.474-2.4107-6.4843-5.8008-7.2422-3.111-0.67534-6.182-1.4906-9.1934-2.436-3.3145-1.028-6.901 0.38101-8.6265 3.3926l-12.727 22.129c-2.0486 3.5621-6.5966 4.7879-10.159 2.7393-2e-3 -1e-3 -0.00532-0.0034-0.00732-0.0044l-17.435-10.034c-1.4122-0.81605-2.4382-2.0305-3.0557-3.4146-1.1502-2.1864-1.2044-4.8884 0.12305-7.1851 1e-3 -2e-3 0.00339-0.00532 0.00439-0.00732l12.801-22.085c1.0339-1.7734 1.2384-3.8262 0.72071-5.6982-0.38955-1.1527-1.0615-2.2221-2.0054-3.0908-2.3232-2.1165-4.5549-4.3368-6.6914-6.6606-2.3608-2.5634-6.1823-3.1463-9.2007-1.4048l-22.102 12.812c-3.5609 2.0453-8.1065 0.83353-10.175-2.7144l-10.084-17.404c-0.60174-1.0473-0.88972-2.1796-0.95068-3.3091-0.3899-2.9045 0.96045-5.8881 3.6577-7.4399l22.129-12.732c3.0137-1.7281 4.4257-5.3158 3.397-8.6338-0.96152-3.0348-1.7833-6.1048-2.4609-9.1875-0.75677-3.3868-3.7611-5.7945-7.2319-5.7935l-25.529-0.035156c-4.1092-0.0055-7.4337-3.341-7.4282-7.4502-1.3e-4 -0.0022-0.00146-0.006589-0.00146-0.008789l0.03222-19.469v-0.12158c-1e-5 -2e-3 1e-5 -0.003859 0-0.005859l0.00147-0.51856c0.0138-4.1047 3.3454-7.4252 7.4502-7.4253l25.55 0.033692c3.4647 0.0023 6.4686-2.3904 7.2495-5.7627 0.65462-2.9649 1.4431-5.9322 2.3657-8.8594 1.0237-3.3195-0.39389-6.9058-3.4102-8.6294l-20.452-11.726c-0.62548-0.22361-1.2339-0.49501-1.8149-0.8291-3.5571-2.0507-4.7848-6.5927-2.7451-10.156l0.33545-0.58447c4e-3 -0.0065 0.00479-0.014017 0.00879-0.020507l0.38818-0.66943 7.4927-13.02 1.8882-3.2944c0.26977-0.47053 0.58854-0.89463 0.9375-1.2817 2.2601-2.8493 4.6099-4.1854 7.8516-2.3159 0.91296 0.52928 3.4034 1.684 4.1353 2.4316l19.378 11.111c3.0113 1.7323 6.8224 1.144 9.1699-1.4165 2.1368-2.3598 4.3745-4.6157 6.6958-6.7544 0.93274-0.86539 1.5931-1.928 1.9775-3.0718 0.15536-0.52064 0.29469-1.0461 0.33398-1.585 5e-3 -0.04769 0.00479-0.095771 0.00879-0.14355 0.0752-1.4088-0.23725-2.8396-0.96973-4.1162l-12.814-22.11c-0.53848-0.93272-0.84027-1.9336-0.94629-2.9399-0.39517-2.8971 0.94383-5.8786 3.6284-7.4399l0.00732-0.004394 17.392-10.107c1.4116-0.81716 2.9763-1.1013 4.4839-0.94629 2.4687 0.093359 4.8383 1.3941 6.167 3.6899 1e-3 2e-3 0.0034 0.005324 0.0044 0.007324l12.759 22.11c1.0215 1.7806 2.6998 2.981 4.5806 3.4658 1.1934 0.23719 2.4545 0.18857 3.6782-0.19629 2.9931-0.95818 6.0302-1.7855 9.1099-2.4785 2.9601-0.66873 5.1689-3.0474 5.688-5.9517 0.0456-0.3357 0.08596-0.67294 0.08496-1.0195l-0.0293-19.523-0.02051-6.3267c3e-3 -4.1065 3.3201-7.4414 7.4268-7.4648l20.115-0.061523c0.71528 4.06e-4 1.389 0.13779 2.0391 0.33398 3.417 0.68124 5.9898 3.6952 5.9854 7.311l-0.01611 25.576c9.5e-4 3.4848 2.4165 6.5028 5.8169 7.2656 0.42078 0.08364 0.82672 0.2205 1.2437 0.31787 1.7273 0.40098 3.4385 0.8477 5.1357 1.333 1.2433 0.35922 2.4863 0.72158 3.7485 1.0195 0.15717 0.0259 0.313 0.048854 0.47022 0.064454 0.56921 0.055199 1.1318 0.035688 1.6846-0.036622 0.14755-0.01932 0.29666-0.026119 0.44238-0.054199 0.56475-0.1088 1.1064-0.29456 1.6274-0.52734 0.16782-0.075259 0.33313-0.15407 0.49512-0.2417 0.48653-0.26239 0.94694-0.57299 1.3667-0.93896 0.15113-0.13277 0.28549-0.28632 0.42627-0.43213 0.31161-0.32022 0.59141-0.67321 0.84522-1.0518 0.08601-0.12993 0.18658-0.2457 0.26514-0.38232l12.76-22.11c2.054-3.559 6.6041-4.7771 10.163-2.7231 2e-3 1e-3 0.005324 0.001929 0.007324 0.002929l17.42 10.061c0.44387 0.25737 0.85112 0.55361 1.2202 0.88184 1e-3 9.3e-4 0.00193 0.00203 0.00293 0.00293 2.612 2.2882 3.3397 6.1699 1.5425 9.2959l-10.236 17.64-2.5796 4.4692c-1.735 3.011-1.1526 6.8232 1.4004 9.1802 2.32 2.12 4.5467 4.3439 6.6797 6.6709 2.357 2.567 6.1797 3.1564 9.2007 1.4194l18.816-10.871c0.84676-0.96826 3.1127-2.1605 4.2334-2.8125 3.5514-2.0605 5.3123-1.9925 8.8887 3.0322l0.33838 0.58301c0.00378 0.0065 0.0094196 0.011108 0.013184 0.017578l0.38672 0.66943 9.3706 16.122c0.090463 0.15601 0.14031 0.32238 0.21826 0.48193l0.084961 0.14648c1.5349 2.6805 1.2201 5.9138-0.54199 8.228-0.59225 0.80366-1.3483 1.5049-2.269 2.0347l-24.416 14.048c-1.4575 1.8895-1.976 4.4118-1.2188 6.7969 1.1685 3.3903 1.7958 6.9198 2.8638 10.345 1.1706 2.7553 3.8734 4.5448 6.8672 4.5483l25.554-0.080567c4.1048-0.0061 7.4419 3.3089 7.4619 7.4136l0.082031 20.082c0.0252 4.1077-3.2834 7.4593-7.3916 7.4854l-25.554 0.057129c-3.4709 0.0042-6.4729 2.4173-7.2246 5.8052-0.62465 3.1-1.4879 6.1542-2.4448 9.1904-1.0237 3.3195 0.39243 6.9058 3.4087 8.6294l22.148 12.699c2.7687 1.5874 4.1056 4.6824 3.6182 7.6567-0.083693 1.0673-0.37479 2.1333-0.94336 3.123l-10.061 17.42c-2.059 3.557-6.6104 4.7727-10.17 2.7188l-22.16-12.769c-3.021-1.737-6.8422-1.1476-9.1992 1.4194-2.36 2.7-5.1098 5.0004-7.5498 7.6304-1.808 2.386-2.0163 5.6202-0.53027 8.2192l12.779 22.131c2.047 3.558 0.83078 8.1012-2.7202 10.16l-17.379 10.059c-0.90223 0.52466-1.8689 0.83437-2.8433 0.95215-2.8951 0.39007-5.8731-0.9499-7.4312-3.6328-8.86e-4 -2e-3 -0.00203-0.00386-0.00293-0.00586l-12.792-22.091c-1.7325-3.0094-5.3253-4.4082-8.6367-3.3662-2.9986 0.95449-6.0771 1.7778-9.186 2.4624-0.80515 0.18254-1.5491 0.5-2.2236 0.91259-2.0875 1.3356-3.4285 3.6674-3.4248 6.2593v25.531c0 2.0673-0.8464 3.9339-2.2075 5.2822-1.3488 1.3848-3.2266 2.2513-5.313 2.2544l-20.111 0.03076zm10.014-102.26c24.085 0 43.288-19.203 43.288-43.288 0-24.085-19.203-43.288-43.288-43.288-24.085 0-43.288 19.203-43.288 43.288 0 24.085 19.203 43.288 43.288 43.288z" clip-path="url(#clipPath8)" fill="currentColor"/>
 </g>
</svg>
