<?xml version="1.0" encoding="UTF-8" standalone="no"?>
<svg
   version="1.1"
   x="0px"
   y="0px"
   viewBox="0 0 47.799999 77.423698"
   xml:space="preserve"
   id="svg5"
   sodipodi:docname="noun-medal-1210085.svg"
   width="47.799999"
   height="77.423698"
   inkscape:version="1.3.2 (091e20e, 2023-11-25)"
   xmlns:inkscape="http://www.inkscape.org/namespaces/inkscape"
   xmlns:sodipodi="http://sodipodi.sourceforge.net/DTD/sodipodi-0.dtd"
   xmlns="http://www.w3.org/2000/svg"
   xmlns:svg="http://www.w3.org/2000/svg"><defs
     id="defs5" /><sodipodi:namedview
     id="namedview5"
     pagecolor="#ffffff"
     bordercolor="#000000"
     borderopacity="0.25"
     inkscape:showpageshadow="2"
     inkscape:pageopacity="0.0"
     inkscape:pagecheckerboard="0"
     inkscape:deskcolor="#d1d1d1"
     inkscape:zoom="10.613333"
     inkscape:cx="23.88505"
     inkscape:cy="58.79397"
     inkscape:window-width="2560"
     inkscape:window-height="1376"
     inkscape:window-x="0"
     inkscape:window-y="0"
     inkscape:window-maximized="1"
     inkscape:current-layer="svg5" /><path
     d="M 10.4,49.6 C 9.1,48.9 7.8,48.1 6.6,47.2 l -3.2,29 c -0.1,0.9 0.9,1.6 1.7,1 l 2.4,-1.7 z"
     id="path1" /><path
     d="m 36.1,50.2 c -3.7,1.7 -7.8,2.7 -12.2,2.7 -4.4,0 -8.5,-1 -12.2,-2.7 L 9,74.4 23.2,64.6 c 0.4,-0.3 0.9,-0.3 1.3,0 l 14.2,9.8 z"
     id="path2" /><path
     d="m 37.4,49.6 2.9,25.9 2.4,1.7 c 0.8,0.5 1.8,-0.1 1.7,-1 l -3.2,-29 C 40,48 38.7,48.9 37.4,49.6 Z"
     id="path3" /><path
     d="M 23.9,0 C 10.7,0 0,10.7 0,23.9 0,37.1 10.7,47.8 23.9,47.8 37.1,47.8 47.8,37.1 47.8,23.9 47.8,10.7 37.1,0 23.9,0 Z m 12.2,32 c 0.7,1.7 1.1,3.5 1.2,5.4 -1.7,-0.1 -3.4,-0.5 -5,-1.1 0,1.7 -0.3,3.5 -0.9,5.1 -1.7,-0.8 -3.2,-1.8 -4.5,-3.1 -0.7,1.7 -1.7,3.3 -3,4.6 -1.2,-1.3 -2.1,-2.7 -2.8,-4.3 -1.2,1.2 -2.6,2.2 -4.2,3 -0.7,-1.7 -1,-3.5 -1,-5.4 -1.7,0.7 -3.5,1.1 -5.4,1.2 0.1,-1.7 0.5,-3.4 1.1,-5 C 9.9,32.4 8.1,32.1 6.5,31.5 7.3,29.8 8.3,28.3 9.6,27 7.9,26.3 6.3,25.3 5,24 6.3,22.8 7.7,21.9 9.3,21.2 8.1,20 7.1,18.6 6.3,17 8,16.3 9.8,16 11.7,16 11,14.3 10.6,12.5 10.5,10.6 c 1.7,0.1 3.4,0.5 5,1.1 0,-1.8 0.3,-3.5 0.9,-5.1 1.7,0.7 3.2,1.8 4.5,3.1 0.7,-1.7 1.7,-3.3 3,-4.6 1.2,1.3 2.1,2.7 2.8,4.3 1.2,-1.2 2.7,-2.2 4.2,-3 0.7,1.7 1,3.5 1,5.4 1.7,-0.7 3.5,-1.1 5.4,-1.2 -0.1,1.7 -0.5,3.4 -1.1,5 1.8,0 3.5,0.3 5.1,0.9 -0.7,1.7 -1.8,3.2 -3.1,4.5 1.7,0.7 3.3,1.7 4.6,3 -1.3,1.2 -2.8,2.1 -4.4,2.8 1.2,1.3 2.3,2.7 3,4.2 -1.6,0.6 -3.4,1 -5.3,1 z"
     id="path4" /></svg>
