<?xml version="1.0" encoding="UTF-8" standalone="no"?>
<svg
   width="500"
   height="500"
   version="1.1"
   id="svg5"
   xmlns="http://www.w3.org/2000/svg"
   xmlns:svg="http://www.w3.org/2000/svg">
  <defs
     id="defs5" />
  <path
     d="m 218.025,378.082 c -5.186,0 -9.043,2.613 -9.043,8.152 v 5.414 h -5.642 v 3.817 h 5.642 v 25.162 h 5.475 v -25.184 h 6.682 v -3.816 h -6.682 v -4.647 c 0,-3.36 1.619,-3.94 4.73,-3.94 0.912,0 1.846,0.124 2.758,0.187 v -4.565 a 17.819,17.819 0 0 0 -3.92,-0.58 z m -192.314,0.85 v 8.09 h 12.924 v 33.583 h 11.511 v -33.584 h 12.905 v -8.09 H 25.71 Z m 12.924,41.673 h -0.002 l 0.002,0.022 z m 58.082,-41.673 v 25.785 c 0,5.06 -2.927,8.67 -8.362,8.67 -5.414,0 -8.359,-3.608 -8.359,-8.67 V 378.95 H 68.484 v 26.346 c 0.103,11.617 9.396,16.18 19.871,16.18 10.497,0 19.77,-4.563 19.895,-16.18 V 378.931 H 96.717 Z m 23.045,0 v 41.673 h 14.314 c 17.777,0 19.645,-15.079 19.645,-20.826 0,-5.746 -1.868,-20.847 -19.666,-20.847 z m 72.045,0 v 41.695 h 5.496 v -41.695 z m 42.918,4.812 -5.498,1.723 v 6.181 h -4.938 v 3.795 h 4.938 v 18.463 c 0,3.858 0.064,7.57 8.195,7.57 1.266,0 2.446,-0.123 3.732,-0.351 v -4.21 c -0.87,0.206 -1.99,0.35 -2.861,0.35 -1.971,0 -3.568,-0.995 -3.568,-3.07 v -18.752 h 6.68 v -3.816 h -6.68 z m -109.174,0.147 h 8.504 c 9.625,0 13.607,7.258 13.607,15.888 0,8.608 -3.982,15.87 -13.607,15.87 h -8.504 V 383.89 Z m 46.88,6.865 c -9.147,0 -13.421,7.094 -13.421,15.6 0,8.545 3.692,15.12 12.965,15.12 6.928,0 11.99,-3.296 12.86,-9.872 h -5.767 c -0.622,4.21 -2.758,5.89 -7.03,5.89 -5.602,0 -7.448,-4.978 -7.448,-10.33 h 20.597 v -2.717 c 0,-8.028 -4.561,-13.691 -12.755,-13.691 z m -0.394,3.982 c 5.29,0 7.363,3.65 7.363,8.61 h -14.685 c 0.042,-4.522 2.78,-8.61 7.322,-8.61 z"
     id="path1" />
  <g
     data-name="Layer 2"
     id="g5">
    <g
       id="g13">
      <path
         d="m 193.58008,123.23242 a 27.37,27.37 0 1 0 27.35937,27.36133 27.37,27.37 0 0 0 -27.35937,-27.36133 z m 2.07812,14.1543 a 13.37,13.37 0 0 1 11.28125,13.20703 13.39,13.39 0 0 1 -13.35937,13.36914 13.37,13.37 0 1 1 2.07812,-26.57617 z"
         style="fill:#00a6d6"
         id="path12" />
      <path
         d="m 145.90039,120.52344 a 10.72,10.72 0 1 0 10.71875,10.70898 10.7,10.7 0 0 0 -10.71875,-10.70898 z"
         style="fill:#00a6d6"
         id="path11" />
      <path
         d="m 271.01953,94.373047 a 7.44,7.44 0 0 0 -7.43945,7.439453 v 44.71094 a 96.8,96.8 0 0 1 -4.05078,27.86914 2.46,2.46 0 0 0 3.07031,3.07031 c 64.10994,-17.93998 110.78042,58.35067 65.73047,107.14063 -25.13998,27.59997 -71.82003,26.77036 -96,-1.59961 a 2.46,2.46 0 0 0 -4.30078,1.44921 c -1.76,25.99998 -8.06893,56.0008 -28.62891,73.80079 a 1.58,1.58 0 0 0 0.20898,2.55859 l 17.41993,10.06055 a 7.44,7.44 0 0 0 10.16992,-2.72071 l 12.76172,-22.10937 a 7.4,7.4 0 0 1 8.6289,-3.38086 c 3,0.95 6.07946,1.77117 9.18946,2.45117 a 7.42,7.42 0 0 1 5.79101,7.25 v 25.5293 a 7.44,7.44 0 0 0 7.43946,7.43945 h 20.10937 a 7.44,7.44 0 0 0 7.44141,-7.43945 v -25.5293 a 7.42,7.42 0 0 1 5.78906,-7.25 c 3.11,-0.68 6.17946,-1.50117 9.18945,-2.45117 a 7.41,7.41 0 0 1 8.63086,3.38086 l 12.75977,22.10937 a 7.44,7.44 0 0 0 10.16992,2.72071 l 17.41992,-10.06055 a 7.45,7.45 0 0 0 2.7207,-10.16016 l -12.76953,-22.1289 a 7.44,7.44 0 0 1 1.39844,-9.17969 c 2.32,-2.12 4.54864,-4.34292 6.68164,-6.66992 a 7.45,7.45 0 0 1 9.19922,-1.41992 l 22.11914,12.77929 a 7.47,7.47 0 0 0 10.16992,-2.73047 l 10.06055,-17.41992 a 7.46,7.46 0 0 0 -2.73047,-10.16015 11.88,11.88 0 0 0 -5.93945,-1.58985 h -27.28907 a 10.57,10.57 0 0 1 -10.57031,-10.60937 v -83.38086 a 10.57,10.57 0 0 1 10.57031,-10.57031 h 27.28907 a 11.88,11.88 0 0 0 5.93945,-1.58985 7.45,7.45 0 0 0 2.73047,-10.16015 l -10.06055,-17.41993 a 7.45,7.45 0 0 0 -10.16992,-2.71875 l -22.1582,12.76953 a 7.45,7.45 0 0 1 -9.20117,-1.41992 c -2.36,-2.69999 -5.10883,-5.00086 -7.54883,-7.63086 a 7.47,7.47 0 0 1 -0.53125,-8.21875 l 12.78125,-22.13086 a 7.45,7.45 0 0 0 -2.72071,-10.16015 l -17.38086,-10.06055 a 7.44,7.44 0 0 0 -10.16992,2.69141 l -12.75976,22.13867 a 7.41,7.41 0 0 1 -8.62891,3.38086 c -3,-1 -6.08141,-1.76922 -9.19141,-2.44922 a 7.42,7.42 0 0 1 -5.78906,-7.25 V 101.8125 a 7.44,7.44 0 0 0 -7.43945,-7.439453 z"
         style="fill:#00a6d6"
         id="path9" />
      <path
         d="m 172.36914,78.523437 c -70.07993,0 -108.34851,75.579023 -102.978515,192.878903 2.849997,62.25994 34.628475,93.29102 72.648435,93.29102 94.18891,0 70.36126,-95.9009 80.28125,-133.38086 8.48999,-32.09997 30.84961,-45.0991 30.84961,-84.78906 0,-43.44996 -40.79082,-68.000002 -80.80078,-68.000003 z m -0.01,17.5 c 16.67999,0 33.00056,5.139383 44.81055,14.109373 12.27999,9.38999 18.54102,21.56064 18.54102,36.39063 0,19.30998 -6.24064,30.24986 -14.14063,44.08984 -5.74999,9.90999 -12.20992,21.27048 -16.16992,36.23047 v 0.0391 c -2.75,10.40999 -3.31062,23.22103 -3.89062,36.79102 -0.87,20.13998 -1.85009,42.99978 -10.08008,59.25976 a 39.36,39.36 0 0 1 -15.71875,17.00977 c -8.36999,4.80999 -19.70166,7.25976 -33.68164,7.25976 -14.24999,0 -26.73939,-5.90055 -36.10938,-17.06054 -11.299987,-13.44999 -17.890546,-33.99909 -19.060545,-59.53906 -1.659998,-36.16997 0.940944,-68.16058 7.710937,-95.06055 6.399998,-25.39998 16.218998,-45.17955 29.208988,-58.76953 13.14998,-13.76999 29.50009,-20.750003 48.58007,-20.750003 z"
         style="fill:#00a6d6"
         id="path8" />
    </g>
    <g
       id="g7">
      <path
         d="m 246.7793,194.74805 a 3.71,3.71 0 0 0 -3.71875,3.7207 v 82.73828 a 3.71,3.71 0 0 0 3.71875,3.7207 h 68.58984 a 3.71,3.71 0 0 0 3.7207,-3.7207 v -13 a 3.72,3.72 0 0 0 -3.7207,-3.71875 h -42.53906 a 1.86,1.86 0 0 1 -1.85938,-1.85937 v -14.07032 a 1.86,1.86 0 0 1 1.85938,-1.86132 h 37.78906 a 3.73,3.73 0 0 0 3.7207,-3.71875 v -10.92969 a 3.72,3.72 0 0 0 -3.7207,-3.72071 h -37.78906 a 1.87,1.87 0 0 1 -1.85938,-1.85937 v -10.61133 a 1.86,1.86 0 0 1 1.85938,-1.85937 h 42.53906 a 3.72,3.72 0 0 0 3.7207,-3.72071 v -11.76953 a 3.71,3.71 0 0 0 -3.7207,-3.75976 z"
         id="path7" />
      <path
         d="m 376.60937,194.73242 a 3.72,3.72 0 0 0 -3.71875,3.7207 v 82.76954 a 3.72,3.72 0 0 0 3.71875,3.7207 H 392 a 3.72,3.72 0 0 0 3.71094,-3.7207 v -55.17969 a 1.24,1.24 0 0 1 2.43945,-0.31055 l 14.38867,56.41016 a 3.72,3.72 0 0 0 3.61133,2.80078 h 14.86914 a 3.72,3.72 0 0 0 3.61133,-2.80078 l 14.42969,-56.42969 a 1.24,1.24 0 0 1 2.43945,0.31055 v 55.19922 a 3.71,3.71 0 0 0 3.7207,3.7207 h 15.34961 a 3.72,3.72 0 0 0 3.71875,-3.7207 v -82.69922 a 3.72,3.72 0 0 0 -3.75976,-3.75977 h -30 a 3.72,3.72 0 0 0 -3.60938,2.79883 l -12.08008,47.38086 a 1.24,1.24 0 0 1 -2.41015,0 l -12.21875,-47.41992 a 3.72,3.72 0 0 0 -3.60157,-2.79102 z"
         id="path6" />
      <path
         d="m 145.06836,193.16211 c -8.83599,0.208 -17.65313,1.58766 -22.57813,4.34766 -24.409971,10.62998 -29.610375,45.12111 -18.40039,67.12109 7.35,16.09998 25.00057,21.9082 42.56055,21.9082 20.40998,0 33.36001,-7.6893 39.5,-12.52929 a 11.12,11.12 0 0 0 4.20898,-8.73047 v -28.08008 a 3.71,3.71 0 0 0 -3.74023,-3.71875 H 151 a 3.71,3.71 0 0 0 -3.7207,3.71875 v 11.28125 A 3.71,3.71 0 0 0 151,252.19922 h 14.91992 v 6.74023 a 3.7,3.7 0 0 1 -1.42969,2.94141 c -4.37999,3.35 -8.84,4.88867 -17.25,4.88867 -12.29998,0.15 -21.56054,-8.64931 -20.81054,-27.2793 0,-15.49998 5.25001,-26.06046 20,-26.48046 6.78999,-0.12 12.28992,2.77008 14.91992,8.33007 A 3.73,3.73 0 0 0 164.7207,223.5 h 20.38867 a 3.72,3.72 0 0 0 3.6504,-4.43945 c -1.81,-9.12999 -9.72002,-19.00094 -21,-23.21094 -5,-1.93 -13.85442,-2.8945 -22.69141,-2.6875 z"
         id="path5" />
    </g>
    <g
       transform="translate(25.71,72.978)"
       id="g4">
      <rect
         class="prefix__prefix__cls-2"
         y="152.14999"
         width="25.040001"
         height="54.27"
         rx="3.72"
         id="rect3"
         x="0" />
      <path
         d="m 35.451,126.518 c -3.38,1.052 -6.887,0.2 -6.887,-4.332 0,-6.937 16.253,-12.747 18.532,-18.782 0.526,-1.528 0.576,-2.755 -0.15,-2.755 -0.501,0.05 -0.1,0.802 -1.253,1.954 -6.736,6.736 -18.005,6.711 -26.67,10.618 -5.66,2.554 -22.287,10.392 -18.456,27.872 0.176,0.826 0.676,3.606 1.177,3.606 0.601,0 0.576,-1.653 0.576,-3.657 -0.125,-10.417 12.17,-13.322 16.177,-20.134 0.501,-0.8 1.303,-1.928 1.503,-1.402 0.1,0.25 0.025,0.626 -0.125,1.352 -1.252,5.585 -7.087,9.166 -5.434,13.173 2.128,5.183 8.314,1.327 10.217,-2.004 0.5,-0.926 0.801,-1.502 1.152,-1.402 0.25,0.1 0.25,1.152 0.075,2.103 -1.002,6.01 -2.404,9.391 -6.787,12.822 -1.402,1.077 -3.606,1.302 -3.33,2.154 0.075,0.225 1.027,0.2 1.778,0.125 11.72,-0.751 21.511,-14.575 24.09,-23.615 0.276,-0.626 0.351,-1.252 0.076,-1.452 -0.351,-0.25 -0.877,0.35 -1.403,0.826 -1.327,1.177 -3.155,2.404 -4.858,2.93"
         id="path4" />
    </g>
  </g>
</svg>
