<?xml version="1.0" encoding="UTF-8" standalone="no"?>
<!-- Created with Inkscape (http://www.inkscape.org/) -->

<svg
   width="513.49957mm"
   height="240.63037mm"
   viewBox="0 0 513.49957 240.63037"
   version="1.1"
   id="svg1"
   xmlns="http://www.w3.org/2000/svg"
   xmlns:svg="http://www.w3.org/2000/svg">
  <defs
     id="defs1">
    <rect
       x="-277.8605"
       y="1797.9209"
       width="261.51578"
       height="153.2319"
       id="rect85" />
    <rect
       x="-277.8605"
       y="1797.9209"
       width="261.51578"
       height="153.2319"
       id="rect84" />
  </defs>
  <g
     id="layer1"
     transform="translate(173.56666,-84.137501)">
    <g
       id="g86"
       transform="matrix(0.26458333,0,0,0.26458333,47.036623,-68.86954)">
      <g
         id="g85">
        <path
           d="m -726.02034,1033.1498 c -21.38657,0 -39.75687,3.1527 -55.11133,9.459 -15.35446,6.0321 -27.14549,14.3946 -35.37109,25.0879 -7.95142,10.6933 -11.92774,23.0321 -11.92774,37.0156 0,12.6126 2.33102,22.8943 6.99219,30.8457 4.93536,7.9514 11.37866,14.2588 19.33008,18.9199 7.95142,4.6612 16.72573,8.2257 26.32227,10.6934 9.59653,2.1935 19.05655,3.9748 28.3789,5.3457 9.59654,1.3709 18.37085,2.7423 26.32227,4.1133 7.95142,1.3709 14.25679,3.4261 18.91797,6.1679 4.93536,2.4677 7.4043,6.3081 7.4043,11.5176 0,6.3063 -3.15465,11.2403 -9.46094,14.8047 -6.03211,3.5644 -16.44978,5.3477 -31.25586,5.3477 -13.43515,0 -27.14538,-1.9192 -41.12891,-5.7578 -13.70934,-4.1128 -25.63634,-9.3227 -35.78125,-15.6289 l -21.38672,46.0625 c 10.14491,6.8546 23.85514,12.6142 41.12891,17.2753 17.54795,4.387 35.78033,6.5801 54.69922,6.5801 22.20913,0 40.99124,-3.0167 56.3457,-9.0488 15.62865,-6.0321 27.55565,-14.2567 35.78125,-24.6758 8.22561,-10.6933 12.33789,-22.8961 12.33789,-36.6055 0,-12.6125 -2.46698,-22.7563 -7.40234,-30.4336 -4.93536,-7.9514 -11.37866,-14.1208 -19.33008,-18.5078 -7.67723,-4.6611 -16.31362,-8.2256 -25.91016,-10.6933 -9.59653,-2.4677 -19.19447,-4.2509 -28.79101,-5.3477 -9.32235,-1.3709 -17.95874,-2.8783 -25.91016,-4.5234 -7.95141,-1.6451 -14.39471,-3.8382 -19.33008,-6.5801 -4.66117,-2.7419 -6.99218,-6.8561 -6.99218,-12.3398 0,-6.0321 3.29061,-10.9661 9.87109,-14.8047 6.58048,-3.8386 17.0001,-5.7578 31.25781,-5.7578 10.14491,0 20.56453,1.2335 31.25782,3.7011 10.96747,2.1935 21.79695,6.4437 32.49023,12.75 l 21.38672,-45.6523 c -10.4191,-6.3063 -23.44362,-11.1043 -39.07227,-14.3945 -15.62864,-3.2903 -30.98222,-4.9356 -46.0625,-4.9356 z m 266.50977,0 c -18.91889,0 -35.7818,3.9744 -50.58789,11.9258 -8.80123,4.7266 -16.24001,10.8161 -22.61914,17.9648 v -26.6015 h -61.28125 v 221.2695 h 64.16016 V 1148.308 c 0,-13.7093 2.19309,-24.9506 6.58007,-33.7246 4.66118,-8.774 10.96656,-15.2173 18.91797,-19.3301 8.22561,-4.387 17.41173,-6.582 27.55664,-6.582 14.25772,0 25.22512,4.2502 32.90235,12.75 7.95141,8.4998 11.92773,21.6622 11.92773,39.4844 v 116.8027 h 64.16016 v -126.6738 c 0,-22.4833 -3.97632,-40.8536 -11.92774,-55.1114 -7.95141,-14.5319 -18.91881,-25.2254 -32.90234,-32.08 -13.70934,-7.1289 -29.33876,-10.6934 -46.88672,-10.6934 z m 238.95508,0 c -17.54795,0 -34.82268,2.331 -51.82226,6.9922 -16.99958,4.6612 -31.53149,11.2404 -43.59571,19.7402 l 23.03125,44.8301 c 7.95142,-6.3063 17.54936,-11.2422 28.79102,-14.8066 11.51584,-3.8386 23.16895,-5.7578 34.95898,-5.7578 17.27377,0 30.02245,3.8384 38.24805,11.5156 8.49979,7.6772 12.75,18.3707 12.75,32.0801 h -50.99805 c -22.48331,0 -40.71764,2.8788 -54.70117,8.6367 -13.98352,5.4837 -24.26522,13.1625 -30.8457,23.0332 -6.3063,9.8707 -9.45899,21.3859 -9.45899,34.5469 0,12.6126 3.28866,23.9918 9.86914,34.1367 6.58049,10.1449 16.04051,18.2335 28.37891,24.2656 12.33841,5.7579 27.1442,8.6367 44.41797,8.6367 19.46726,0 35.37058,-3.7024 47.70898,-11.1054 8.41321,-5.048 14.8985,-11.8158 19.74219,-20.0508 v 27.8652 h 60.04688 v -126.2637 c 0,-33.7249 -9.3221,-58.5385 -27.9668,-74.4414 -18.6447,-15.9028 -44.82971,-23.8535 -78.55469,-23.8535 z m 273.078131,0 c -23.85425,0 -45.1052997,4.934 -63.750001,14.8047 -18.644701,9.5965 -33.312575,23.0329 -44.00586,40.3066 -10.419097,16.9996 -15.628906,36.6034 -15.628906,58.8125 0,21.935 5.209809,41.5407 15.628906,58.8145 10.693285,17.2738 25.361159,30.8461 44.00586,40.7168 18.6447013,9.5965 39.895751,14.3945 63.750001,14.3945 23.305876,0 43.595374,-4.798 60.869139,-14.3945 17.27377,-9.8707 30.02245,-23.7189 38.24805,-41.541 l -49.76367,-27.1446 c -5.757925,10.6933 -13.024854,18.508 -21.798831,23.4434 -8.49979,4.6612 -17.821886,6.9922 -27.966797,6.9922 -10.967471,0 -20.837352,-2.467 -29.611329,-7.4024 -8.773977,-4.9353 -15.7670138,-11.9284 -20.9765626,-20.9765 -4.935362,-9.0482 -7.4023438,-20.0156 -7.4023438,-32.9024 0,-12.8867 2.4669818,-23.8541 7.4023438,-32.9023 5.2095488,-9.0482 12.2025856,-16.0393 20.9765626,-20.9746 8.773977,-4.9354 18.643858,-7.4043 29.611329,-7.4043 10.144911,0 19.467007,2.4689 27.966797,7.4043 8.773977,4.9353 16.040906,12.6121 21.798831,23.0312 l 49.76367,-26.7324 c -8.2256,-18.0963 -20.97428,-31.9445 -38.24805,-41.541 -17.273765,-9.8707 -37.563263,-14.8047 -60.869139,-14.8047 z m 240.265629,0 c -23.85425,0 -45.10335,4.934 -63.74805,14.8047 -18.6447,9.5965 -33.31453,23.0329 -44.00781,40.3066 -10.4191,16.9996 -15.62891,36.6034 -15.62891,58.8125 0,21.935 5.20981,41.5407 15.62891,58.8145 10.69328,17.2738 25.36311,30.8461 44.00781,40.7168 18.6447,9.5965 39.8938,14.3945 63.74805,14.3945 23.30588,0 43.59537,-4.798 60.86914,-14.3945 17.27377,-9.8707 30.0244,-23.7189 38.25,-41.541 l -49.76562,-27.1446 c -5.75793,10.6933 -13.0229,18.508 -21.79688,23.4434 -8.49979,4.6612 -17.82384,6.9922 -27.96875,6.9922 -10.96747,0 -20.83735,-2.467 -29.61133,-7.4024 -8.77398,-4.9353 -15.76506,-11.9284 -20.97461,-20.9765 -4.93536,-9.0482 -7.4043,-20.0156 -7.4043,-32.9024 0,-12.8867 2.46894,-23.8541 7.4043,-32.9023 5.20955,-9.0482 12.20063,-16.0393 20.97461,-20.9746 8.77398,-4.9354 18.64386,-7.4043 29.61133,-7.4043 10.14491,0 19.46896,2.4689 27.96875,7.4043 8.77398,4.9353 16.03895,12.6121 21.79688,23.0312 l 49.76562,-26.7324 c -8.2256,-18.0963 -20.97623,-31.9445 -38.25,-41.541 -17.27377,-9.8707 -37.56326,-14.8047 -60.86914,-14.8047 z m -514.99024,132.0215 h 44.00781 v 22.6191 c -3.83861,9.8708 -10.00802,17.4116 -18.50781,22.6211 -8.49979,4.9354 -18.09578,7.4024 -28.78906,7.4024 -11.24166,0 -20.1539,-2.3291 -26.73438,-6.9903 -6.3063,-4.9353 -9.45898,-11.5165 -9.45898,-19.7421 0,-7.4031 2.74282,-13.5725 8.22656,-18.5079 5.75792,-4.9353 16.17559,-7.4023 31.25586,-7.4023 z"
           style="font-weight:bold;font-size:32px;font-family:Montserrat;-inkscape-font-specification:'Montserrat Bold';white-space:pre;fill:#004459;paint-order:markers stroke fill"
           id="path2" />
        <path
           d="m 738.92499,1033.1498 c -18.9189,0 -35.77983,3.9744 -50.58593,11.9258 -8.74687,4.6974 -16.26651,10.6232 -22.6211,17.7129 v -26.3496 h -61.28125 v 221.2695 h 64.16016 V 1148.308 c 0,-13.7093 2.19308,-24.9506 6.58008,-33.7246 4.66118,-8.774 10.96849,-15.2173 18.91992,-19.3301 8.22561,-4.387 17.40976,-6.582 27.55469,-6.582 14.25772,0 25.2251,4.2502 32.90234,12.75 7.95142,8.4998 11.92773,21.6622 11.92773,39.4844 v 116.8027 h 64.16016 v -126.6738 c 0,-22.4834 -3.97631,-40.8536 -11.92773,-55.1114 -7.95143,-14.5319 -18.91881,-25.2254 -32.90235,-32.08 -13.70935,-7.1289 -29.33875,-10.6934 -46.88672,-10.6934 z m 252.92579,0 c -22.48334,0 -42.63683,4.934 -60.45899,14.8047 -17.82216,9.5965 -31.94222,23.0329 -42.36133,40.3066 -10.14492,16.9996 -15.21679,36.6034 -15.21679,58.8125 0,21.935 5.2098,41.5407 15.6289,58.8145 10.41911,16.9996 25.08696,30.4339 44.00586,40.3047 19.1931,9.8707 41.4037,14.8066 66.62887,14.8066 20.0157,0 37.7003,-3.0167 53.0547,-9.0488 15.3545,-6.3063 28.1032,-15.2166 38.2481,-26.7324 l -34.1348,-37.0157 c -7.403,7.1289 -15.6296,12.4747 -24.6777,16.0391 -8.774,3.5644 -19.0557,5.3477 -30.8457,5.3477 -13.16101,0 -24.67812,-2.331 -34.54886,-6.9922 -9.59654,-4.9354 -17.1354,-11.9265 -22.61914,-20.9746 -2.83124,-5.0665 -4.82269,-10.5749 -6.11523,-16.4512 h 167.33793 c 0.2741,-2.7419 0.548,-5.6207 0.8222,-8.6367 0.2742,-3.2903 0.4102,-6.171 0.4102,-8.6387 0,-23.8543 -5.0719,-44.2797 -15.2168,-61.2793 -10.1449,-17.2738 -23.9911,-30.4362 -41.5391,-39.4844 -17.2738,-9.3223 -36.7415,-13.9824 -58.40232,-13.9824 z m 0.41211,48.5313 c 10.96751,0 20.56341,2.4669 28.78911,7.4023 8.2256,4.6612 14.6688,11.2424 19.33,19.7422 3.0844,5.6244 5.0484,11.9729 6.0918,18.918 H 937.73945 c 1.07017,-6.8239 2.99573,-13.0437 5.99219,-18.5079 4.66118,-8.7739 11.10446,-15.4911 19.33008,-20.1523 8.49979,-4.9354 18.23369,-7.4023 29.20117,-7.4023 z"
           style="font-weight:bold;font-size:32px;font-family:Montserrat;-inkscape-font-specification:'Montserrat Bold';white-space:pre;fill:#004459;paint-order:markers stroke fill"
           id="path1" />
      </g>
      <g
         id="g140"
         style="display:inline"
         transform="matrix(1.1625031,0,0,1.1625031,62.316195,342.85251)">
        <g
           id="g139"
           style="display:inline;fill:#007799;fill-opacity:1;stroke:none">
          <path
             d="m 178.88369,458.27306 3.72169,-27.96823 a 7.68,7.68 0 0 1 14.82367,-1.63028 l 5.03376,13.7317 a 7.68,7.68 0 0 1 -0.73223,6.09446 l -8.61029,14.67241 a 7.68,7.68 0 0 1 -14.2366,-4.90006 z"
             style="fill:#007799;fill-opacity:1;stroke:none"
             id="path8" />
          <path
             d="m 181.93667,492.47318 19.32693,-32.93413 a 7.68,7.68 0 0 1 11.5904,-1.97082 34.830041,34.830041 0 0 0 23.25186,8.25619 96.384,96.384 0 0 0 60.35561,-22.87729 7.68,7.68 0 0 1 12.05733,2.89816 l 37.72356,90.41311 a 7.68,7.68 0 0 1 -9.18988,10.344 L 186.45829,503.74693 a 7.68,7.68 0 0 1 -4.52162,-11.27375 z"
             style="fill:#007799;fill-opacity:1;stroke:none"
             id="path11" />
          <path
             d="m 306.70216,604.2575 -95.62671,-72.69375 a 7.68,7.68 0 0 1 6.74983,-13.50071 l 129.76385,36.92766 a 7.68,7.68 0 0 1 5.51081,8.39976 l -3.29425,24.75603 a 98.874852,98.874852 0 0 0 -43.10353,16.11101 z"
             style="fill:#007799;fill-opacity:1;stroke:none"
             id="path37" />
          <path
             d="m 228.01506,758.42155 -69.35739,222.70904 a 2.88,2.88 0 0 0 5.40829,1.96384 l 80.07697,-192.22568 a 14.4,14.4 0 0 1 17.25145,-8.30771 l 80.50375,23.01831 -73.69133,37.45128 a 11.015231,11.015231 0 0 0 -5.66866,7.04222 l -32.25542,123.78218 a 2.88,2.88 0 0 0 5.45941,1.79966 l 45.45268,-113.16133 a 5.76,5.76 0 0 1 2.55653,-2.8932 l 73.18895,-40.49187 -41.49829,51.06554 a 8.594704,8.594704 0 0 0 -1.89483,6.13637 l 8.37279,100.15333 a 2.88,2.88 0 0 0 5.74868,-0.15298 l 2.85959,-94.67762 a 5.76,5.76 0 0 1 1.72789,-3.94204 l 56.9721,-55.77556 a 54.72,54.72 0 0 1 1.30552,-33.55112 148.1266,148.1266 0 0 1 -58.14748,-13.47277 2.251025,2.251025 0 0 0 -0.30859,-0.1152 l -87.12744,-25.44 a 13.712082,13.712082 0 0 0 -16.93517,9.08531 z"
             style="fill:#007799;fill-opacity:1;stroke:none"
             id="path81" />
        </g>
        <g
           id="g138"
           style="display:inline;fill:#00a6d6;fill-opacity:1;stroke:none">
          <path
             d="m 553.88136,508.17348 21.59259,-162.26655 a 7.68,7.68 0 0 0 -11.37992,-7.70572 l -57.06596,32.11998 a 7.68,7.68 0 0 0 -3.64267,8.7123 l 35.47338,130.14658 a 7.68,7.68 0 0 0 15.02258,-1.00659 z"
             style="fill:#00a6d6;fill-opacity:1;stroke:none"
             id="path9" />
          <path
             d="M 566.61708,318.61942 437.91759,218.30682 a 7.68,7.68 0 0 0 -11.52741,9.61536 l 69.77736,133.47734 a 7.68,7.68 0 0 0 10.57313,3.13468 l 58.92212,-33.16473 a 7.68,7.68 0 0 0 0.95429,-12.75005 z"
             style="fill:#00a6d6;fill-opacity:1;stroke:none"
             id="path10" />
          <path
             d="m 413.43256,358.01808 66.0537,8.78968 a 7.68,7.68 0 0 0 7.81914,-11.17089 l -27.65916,-52.9093 a 7.68,7.68 0 0 0 -14.16534,1.36162 63.073294,63.073294 0 0 1 -34.22696,39.3306 7.68,7.68 0 0 0 2.17862,14.59829 z"
             style="fill:#00a6d6;fill-opacity:1;stroke:none"
             id="path12" />
          <path
             d="m 399.39341,361.37961 81.32643,10.82199 a 7.68,7.68 0 0 1 5.05477,12.32078 L 365.6,539.41084 a 7.68,7.68 0 0 1 -13.15561,-1.7506 l -35.57624,-85.26657 a 7.68,7.68 0 0 1 10.37294,-9.8992 l 10.31855,4.88307 a 30.857302,30.857302 0 0 0 38.60095,-10.3724 l 3.2628,-4.73078 a 76.865682,76.865682 0 0 0 11.4871,-61.4977 7.68,7.68 0 0 1 8.48292,-9.39705 z"
             style="fill:#00a6d6;fill-opacity:1;stroke:none"
             id="path13" />
          <path
             d="M 541.99106,540.38512 501.68975,392.52555 a 7.68,7.68 0 0 0 -13.4775,-2.68826 L 371.9528,539.67966 a 7.68,7.68 0 0 0 6.16507,12.38726 l 156.56075,-1.98279 a 7.68,7.68 0 0 0 7.31244,-9.69901 z"
             style="fill:#00a6d6;fill-opacity:1;stroke:none"
             id="path14" />
          <path
             d="m 418.36235,605.09339 85.28147,-34.59797 a 7.68,7.68 0 0 0 -2.98443,-14.79604 l -134.90511,1.70853 a 7.68,7.68 0 0 0 -7.51564,6.66635 l -3.13542,23.56249 a 98.874852,98.874852 0 0 1 63.25913,17.45664 z"
             style="fill:#00a6d6;fill-opacity:1;stroke:none"
             id="path38" />
          <path
             d="m 475.35532,828.80152 16.34136,116.33891 a 2.88,2.88 0 0 1 -5.63005,1.16014 L 457.49942,841.81502 a 5.76,5.76 0 0 0 -4.01466,-4.03084 l -59.44689,-16.51063 a 49.92,49.92 0 0 1 1.67224,-32.98761 52.8,52.8 0 0 0 47.92712,-27.42558 2.3879,2.3879 0 0 1 0.57512,-0.69555 l 75.69638,-62.44595 a 7.738684,7.738684 0 0 1 11.96721,2.76193 L 640.56265,939.1117 a 2.88,2.88 0 0 1 -5.15666,2.55923 L 528.73701,743.58848 a 4.178128,4.178128 0 0 0 -6.27829,-1.28989 l -50.01165,39.74852 23.69786,-8.21377 a 10.876479,10.876479 0 0 1 13.4937,5.84296 l 62.04952,138.99364 a 2.88,2.88 0 0 1 -5.12221,2.61712 L 496.71547,800.64979 a 5.76,5.76 0 0 0 -6.50302,-2.67008 l -48.52619,13.2602 26.76935,9.19681 a 10.36987,10.36987 0 0 1 6.89971,8.3648 z"
             style="fill:#00a6d6;fill-opacity:1;stroke:none"
             id="path82" />
        </g>
        <g
           id="g83"
           style="display:inline;fill:#004459;fill-opacity:1;stroke:none"
           transform="translate(2e-6)">
          <path
             d="m 372.45976,704.58886 h -30.92685 a 23.805171,23.805171 0 0 0 7.94951,41.81658 h 27.00654 a 42.460614,42.460614 0 0 1 -4.0292,-41.81658 z"
             style="display:inline;fill:#004459;fill-opacity:1;stroke:none"
             id="path5"
             transform="translate(2e-6)" />
          <path
             d="M 362.12876,656.9786 H 325.0356 a 24.693732,24.693732 0 0 0 17.01521,41.00665 h 28.92599 a 43.00429,43.00429 0 0 1 -8.84804,-41.00665 z"
             style="display:inline;fill:#004459;fill-opacity:1;stroke:none"
             id="path6"
             transform="translate(2e-6)" />
          <path
             d="m 361.66467,650.85824 h -39.73149 a 29.085557,29.085557 0 0 1 -15.59203,-31.54612 31.623319,31.623319 0 0 1 4.81852,-11.66949 93.594852,93.594852 0 0 1 37.92487,-14.07676 99.842402,99.842402 0 0 0 12.58013,57.29237 z"
             style="display:inline;fill:#004459;fill-opacity:1;stroke:none"
             id="path36"
             transform="translate(2e-6)" />
          <path
             d="m 379.09337,751.57523 a 37.708464,37.708464 0 0 0 9.69647,31.93541 141.4066,141.4066 0 0 1 -54.30817,-13.07761 13.434497,13.434497 0 0 1 5.50621,-18.8578 z"
             style="display:inline;fill:#004459;fill-opacity:1;stroke:none"
             id="path84"
             transform="translate(2e-6)" />
          <path
             d="m 370.97667,656.9786 a 31.562322,31.562322 0 0 0 10.01033,41.00665 39.987602,39.987602 0 0 0 34.39936,-11.91064 25.732429,25.732429 0 0 0 -4.93441,-29.09601 z"
             style="fill:#004459;fill-opacity:1;stroke:none"
             id="path7" />
          <path
             d="m 412.44937,607.49223 a 93.594852,93.594852 0 0 0 -57.52783,-14.54873 94.082402,94.082402 0 0 0 13.42492,57.91474 h 39.3074 a 41.038112,41.038112 0 0 0 4.79551,-43.36601 z"
             style="fill:#004459;fill-opacity:1;stroke:none"
             id="path39" />
          <path
             d="m 387.19911,751.57523 a 56.292086,56.292086 0 0 0 32.58209,-7.23079 34.273505,34.273505 0 0 1 12.36592,20.26079 4.8,4.8 0 0 1 -1.19357,4.19483 46.08,46.08 0 0 1 -34.59822,14.70284 27.348166,27.348166 0 0 1 -9.15622,-31.92767 z"
             style="fill:#004459;fill-opacity:1;stroke:none"
             id="path83" />
          <path
             d="m 380.987,702.87108 a 36.262158,36.262158 0 0 0 26.6511,-3.45684 33.289584,33.289584 0 0 1 13.36536,20.19814 17.157176,17.157176 0 0 1 -13.79067,20.51044 l -20.01368,3.53162 A 25.917674,25.917674 0 0 1 380.987,702.87108 Z"
             style="fill:#004459;fill-opacity:1;stroke:none"
             id="path85" />
        </g>
        <path
           d="m 207.54401,441.20561 -11.21118,-30.58325 c -5.35305,-14.60272 -7.07803,-30.2874 -5.0265,-45.70446 l 1.10947,-8.33755 c 0.65605,-4.93013 5.02298,-8.50676 9.98573,-8.17859 4.96275,0.32818 8.82068,4.4487 8.82182,9.42229 0.004,19.39315 15.16682,35.40044 34.53125,36.45544 19.36442,1.055 36.17612,-13.21029 38.28739,-32.48818 0.58308,-5.32401 6.91207,-7.7947 10.94798,-4.27383 l 17.11416,14.93017 c 7.7668,6.77566 19.71744,5.19519 25.45587,-3.36654 14.22326,-21.22106 13.10679,-49.20031 -2.76214,-69.22059 -2.33656,-2.94782 -0.23718,-7.29077 3.52436,-7.29077 h 29.48005 c 17.36965,0 31.45053,-14.08088 31.45053,-31.45053 v -54.944 c 1e-5,-3.43093 4.31336,-4.95463 6.46859,-2.28512 15.58866,19.30835 27.34883,41.41448 34.64862,65.13223 11.44455,37.18451 -16.31647,74.84682 -55.22226,74.91792 -3.54663,0.006 -6.11085,3.3915 -5.15674,6.80739 l 5.19587,18.60209 c 5.72365,20.49166 2.04861,42.46704 -10.03095,59.98139 l -3.2628,4.73078 c -7.14401,10.35822 -20.74238,14.01221 -32.11602,8.62984 l -25.8449,-12.23064 c -4.8909,-2.31453 -10.71214,-1.26462 -14.48628,2.61274 -16.70827,17.16522 -39.49916,27.06765 -63.44829,27.56771 -12.66249,0.26439 -24.09447,-7.5445 -28.45363,-19.43594 z"
           style="fill:#005e79;fill-opacity:1;stroke:none"
           id="path137" />
        <path
           d="m 200.60439,422.27345 c 5.37635,14.66626 19.47593,24.29731 35.09316,23.97122 20.16769,-0.4211 39.36001,-8.75999 53.43013,-23.21491 8.06729,-8.28792 20.51029,-10.53213 30.96468,-5.58477 l 25.8449,12.23064 c 4.99423,2.36344 10.96536,0.75895 14.10234,-3.78941 l 3.2628,-4.73079 c 9.65292,-13.99593 12.58969,-31.55671 8.01585,-47.93184 l -5.19587,-18.60209 c -3.51535,-12.58556 5.9323,-25.05736 18.99957,-25.08124 29.22795,-0.0534 50.08339,-28.3472 41.48568,-56.28204 -5.995,-19.47838 -15.24374,-37.80151 -27.35432,-54.19301 v -12.89 c 10e-6,-3.43093 4.31324,-4.95456 6.46847,-2.28505 15.58866,19.30835 27.34895,41.41441 34.64874,65.13216 11.44455,37.18451 -16.31647,74.84682 -55.22226,74.91792 -3.54663,0.006 -6.11085,3.3915 -5.15674,6.80739 l 5.19587,18.60209 c 5.72365,20.49166 2.04861,42.46704 -10.03095,59.98139 l -3.2628,4.73078 c -7.14401,10.35822 -20.74238,14.01221 -32.11602,8.62984 l -25.8449,-12.23064 c -4.8909,-2.31453 -10.71214,-1.26462 -14.48628,2.61274 -16.70827,17.16522 -39.49916,27.06765 -63.44829,27.56771 -12.66249,0.26439 -24.09447,-7.5445 -28.45363,-19.43594 z"
           style="display:inline;fill:#004459;fill-opacity:1;stroke:none"
           id="path6-6" />
      </g>
    </g>
  </g>
</svg>
