<?xml version="1.0" encoding="UTF-8" standalone="no"?>
<!-- Created with Inkscape (http://www.inkscape.org/) -->

<svg
   width="51.318142mm"
   height="11.1125mm"
   viewBox="0 0 51.318142 11.1125"
   version="1.1"
   id="svg1"
   inkscape:version="1.3.2 (091e20e, 2023-11-25, custom)"
   sodipodi:docname="snapmaker_logo.svg"
   xmlns:inkscape="http://www.inkscape.org/namespaces/inkscape"
   xmlns:sodipodi="http://sodipodi.sourceforge.net/DTD/sodipodi-0.dtd"
   xmlns="http://www.w3.org/2000/svg"
   xmlns:svg="http://www.w3.org/2000/svg">
  <sodipodi:namedview
     id="namedview1"
     pagecolor="#ffffff"
     bordercolor="#000000"
     borderopacity="0.25"
     inkscape:showpageshadow="2"
     inkscape:pageopacity="0.0"
     inkscape:pagecheckerboard="0"
     inkscape:deskcolor="#d1d1d1"
     inkscape:document-units="mm"
     inkscape:zoom="2"
     inkscape:cx="59"
     inkscape:cy="40.25"
     inkscape:window-width="1920"
     inkscape:window-height="991"
     inkscape:window-x="-9"
     inkscape:window-y="-9"
     inkscape:window-maximized="1"
     inkscape:current-layer="svg1" />
  <defs
     id="defs1" />
  <path
     d="m 14.005347,2.7858765 c -0.340612,-0.010207 -0.674378,0.041857 -1.002006,0.1576131 -0.438216,0.1543401 -0.816144,0.4063494 -1.135848,0.7549927 -0.319705,0.3500211 -0.534679,0.7484475 -0.644922,1.1963094 -0.110243,0.4492401 -0.110243,0.8983091 0,1.3503051 0.110243,0.4519961 0.325217,0.8533506 0.644922,1.2019939 0.319704,0.3500211 0.697632,0.5991023 1.135848,0.7493082 0.436837,0.1515839 0.884357,0.1917197 1.34462,0.1214396 0.458887,-0.068902 0.876778,-0.2437406 1.251604,-0.5234822 V 8.334375 h 1.11311 V 2.9765625 h -1.11311 V 3.3403646 C 15.224739,3.0620013 14.806848,2.8871623 14.347961,2.8168823 14.232896,2.7996568 14.118884,2.7892786 14.005347,2.7858765 Z m -0.08165,1.1110433 c 0.300412,-0.00275 0.579982,0.068902 0.837675,0.2149739 0.256315,0.14745 0.460265,0.3503667 0.611849,0.6066813 0.150206,0.2576931 0.226343,0.5372632 0.226343,0.837675 0,0.3017902 -0.07458,0.5813602 -0.220659,0.837675 -0.14745,0.2576929 -0.347438,0.461643 -0.600997,0.6118489 C 14.524351,7.1573578 14.24323,7.2321167 13.93455,7.2321167 13.63965,7.2403867 13.363008,7.16976 13.102559,7.0223104 12.840733,6.8762386 12.635232,6.6722883 12.485026,6.4104614 12.333442,6.1500126 12.2592,5.8704425 12.2592,5.5727865 c 0,-0.2976559 0.07269,-0.5748144 0.220142,-0.8325074 0.14607,-0.2563147 0.348988,-0.4602651 0.606681,-0.6118489 0.256315,-0.150206 0.535884,-0.2273762 0.837675,-0.2315104 z"
     style="fill:#1f1f1f;stroke-width:0.352778"
     id="path15" />
  <path
     d="m 45.506266,2.7827759 c -0.337833,-0.018474 -0.673861,0.025838 -1.006657,0.1333252 -0.445106,0.1433158 -0.826995,0.3827503 -1.1467,0.7162353 -0.319703,0.334863 -0.544153,0.7222648 -0.67231,1.1632365 -0.129537,0.4409718 -0.143141,0.8903856 -0.04393,1.3451375 0.09922,0.4561304 0.297657,0.8595517 0.595312,1.2123292 0.297656,0.3527774 0.65698,0.6163279 1.080038,0.7885823 0.421679,0.1736325 0.867135,0.2353001 1.334285,0.1870687 0.46578,-0.046853 0.888667,-0.1996435 1.267623,-0.4573364 0.377586,-0.2563148 0.678168,-0.5870445 0.898653,-0.9921875 0.220486,-0.4037647 0.33073,-0.8407759 0.33073,-1.3120646 L 47.569706,5.9092 C 47.503566,6.3501718 47.319247,6.7360232 47.018835,7.0667521 46.717045,7.3974809 46.348763,7.6179675 45.91606,7.7282104 45.481978,7.8384533 45.05358,7.8188161 44.631901,7.6672323 44.208843,7.5170266 43.865539,7.265017 43.600956,6.9122396 L 47.900435,4.4209188 C 47.708888,3.9951055 47.432246,3.642327 47.068445,3.3625854 46.704643,3.0842222 46.296742,2.9033543 45.844747,2.82205 45.731748,2.8020685 45.618877,2.7889339 45.506266,2.7827759 Z m -0.229443,0.5467366 c 0.359667,-0.01378 0.705383,0.05495 1.036112,0.2092896 0.330729,0.1543401 0.606337,0.3787887 0.826823,0.6723104 L 43.314669,6.4269979 C 43.174108,6.0893789 43.118986,5.7381507 43.149304,5.374349 43.178232,5.0105472 43.289519,4.6743052 43.485201,4.365625 43.679504,4.0569447 43.934613,3.8118259 44.251562,3.6271688 44.574022,3.44389 44.915776,3.344671 45.276823,3.3295125 Z"
     style="fill:#1f1f1f;stroke-width:0.352778"
     id="path13" />
  <path
     d="m 35.196301,2.7801921 c -0.289452,9.675e-4 -0.574642,0.048055 -0.855761,0.1410766 -0.374826,0.1254014 -0.707967,0.3198773 -0.997356,0.5844605 -0.290765,0.264583 -0.515731,0.5761923 -0.672827,0.931726 -0.158475,0.3569116 -0.236678,0.7327722 -0.236678,1.1296469 0,0.3968745 0.07821,0.7746299 0.236678,1.1301635 0.157096,0.3569117 0.382062,0.6671431 0.672827,0.9317261 0.289389,0.2645831 0.62253,0.4575088 0.997356,0.578776 0.374825,0.1212672 0.756715,0.1638144 1.1467,0.1266073 0.388605,-0.035829 0.755337,-0.150034 1.09709,-0.3415812 0.341753,-0.1901689 0.629419,-0.4437285 0.865064,-0.7606771 V 8.334375 h 0.551387 V 2.9765625 H 37.449394 V 3.9026042 C 37.213749,3.5870338 36.926083,3.3334743 36.58433,3.1419271 36.242577,2.9517582 35.875845,2.8360023 35.48724,2.7946615 c -0.0975,-0.00999 -0.194455,-0.014792 -0.290939,-0.014469 z m 0.02636,0.5601725 c 0.403765,0 0.77463,0.099219 1.113627,0.2976562 0.337619,0.1984373 0.607714,0.4685333 0.810287,0.8102865 0.201192,0.341753 0.302824,0.7150301 0.302824,1.1187948 0,0.4051429 -0.101632,0.7775584 -0.302824,1.1193115 C 36.943997,7.0281667 36.673902,7.2982627 36.336283,7.4967 35.997286,7.6951373 35.626421,7.7943563 35.222656,7.7943563 34.817514,7.7943563 34.445615,7.695137 34.103861,7.4967 33.762109,7.2982627 33.492013,7.0281667 33.293575,6.6864136 33.095138,6.3446605 32.995919,5.972245 32.995919,5.5671021 c 0,-0.4037647 0.09922,-0.7770418 0.297656,-1.1187948 0.198438,-0.3417532 0.468534,-0.6118492 0.810286,-0.8102865 0.341754,-0.1984373 0.713653,-0.2976562 1.118795,-0.2976562 z"
     style="fill:#1f1f1f;stroke-width:0.352778"
     id="path11" />
  <path
     d="m 25.840283,2.7786418 c -0.161747,0.00379 -0.322978,0.025666 -0.484208,0.065629 -0.323839,0.081304 -0.612021,0.2261708 -0.86558,0.4356324 -0.253559,0.2094615 -0.451997,0.4614709 -0.595313,0.7549926 -0.143316,0.2949001 -0.218936,0.6061649 -0.225826,0.9368938 V 8.334375 h 0.550871 V 5.0048625 c -0.01516,-0.3004119 0.05099,-0.5854941 0.198438,-0.8542115 0.146071,-0.2673393 0.35295,-0.4797297 0.617533,-0.6340698 0.264584,-0.1543401 0.548288,-0.2315104 0.854211,-0.2315104 0.304546,0 0.587216,0.07717 0.849044,0.2315104 0.260449,0.1543401 0.464399,0.3667305 0.611849,0.6340698 0.146072,0.2687174 0.21618,0.5537996 0.20929,0.8542115 V 8.334375 h 0.562239 V 5.0048625 c -0.01516,-0.3004119 0.05099,-0.5854941 0.198438,-0.8542115 0.146072,-0.2673393 0.35295,-0.4797297 0.617533,-0.6340698 0.264584,-0.1543401 0.548288,-0.2315104 0.854212,-0.2315104 0.304545,0 0.587217,0.07717 0.849043,0.2315104 0.260449,0.1543401 0.464398,0.3667305 0.611849,0.6340698 0.146071,0.2687174 0.21618,0.5537996 0.20929,0.8542115 V 8.334375 h 0.551387 V 4.9717896 c 0,-0.3307289 -0.07166,-0.6419937 -0.214974,-0.9368938 C 31.656294,3.7413741 31.454927,3.4893647 31.198612,3.2799032 30.94092,3.0704416 30.653254,2.9255752 30.333549,2.8442708 30.013844,2.7643449 29.691211,2.7559042 29.36875,2.82205 29.044911,2.8881958 28.751216,3.017904 28.486633,3.2080729 28.222051,3.3996201 28.008627,3.6421553 27.847396,3.9356771 27.684788,3.6421553 27.472741,3.3996201 27.208158,3.2080729 26.943575,3.017904 26.648502,2.8881958 26.326042,2.82205 26.164122,2.788977 26.00203,2.774852 25.840283,2.7786418 Z"
     style="fill:#1f1f1f;stroke-width:0.352778"
     id="path9" />
  <path
     d="m 25.840283,2.7786418 c 0.161747,-0.00379 0.323839,0.010335 0.485759,0.043408 0.32246,0.066146 0.617533,0.195854 0.882116,0.3860229 0.264583,0.1915472 0.47663,0.4340824 0.639238,0.7276042 0.161231,-0.2935218 0.374655,-0.536057 0.639237,-0.7276042 0.264583,-0.1901689 0.558278,-0.3198771 0.882117,-0.3860229 0.322461,-0.066146 0.645094,-0.057705 0.964799,0.022221 0.319705,0.081304 0.607371,0.2261708 0.865063,0.4356324 0.256315,0.2094615 0.457682,0.4614709 0.600997,0.7549926 0.143314,0.2949001 0.214974,0.6061649 0.214974,0.9368938 V 8.334375 H 31.463196 V 5.0048625 C 31.470086,4.7044506 31.399977,4.4193684 31.253906,4.150651 31.106455,3.8833117 30.902506,3.6709213 30.642057,3.5165812 30.380231,3.362241 30.097559,3.2850708 29.793014,3.2850708 c -0.305924,0 -0.589628,0.07717 -0.854212,0.2315104 -0.264583,0.1543401 -0.471461,0.3667305 -0.617533,0.6340698 -0.147447,0.2687174 -0.213598,0.5537996 -0.198438,0.8542115 V 8.334375 H 27.560592 V 5.0048625 C 27.567482,4.7044506 27.497374,4.4193684 27.351302,4.150651 27.203852,3.8833117 26.999902,3.6709213 26.739453,3.5165812 26.477625,3.362241 26.194955,3.2850708 25.890409,3.2850708 c -0.305923,0 -0.589627,0.07717 -0.854211,0.2315104 -0.264583,0.1543401 -0.471462,0.3667305 -0.617533,0.6340698 -0.147447,0.2687174 -0.213598,0.5537996 -0.198438,0.8542115 V 8.334375 H 23.669356 V 4.9717896 c 0.0069,-0.3307289 0.08251,-0.6419937 0.225826,-0.9368938 0.143316,-0.2935217 0.341754,-0.5455311 0.595313,-0.7549926 0.253559,-0.2094616 0.541741,-0.3543284 0.86558,-0.4356324 0.16123,-0.039963 0.322461,-0.061839 0.484208,-0.065629 z"
     style="fill:#1f1f1f;stroke-width:0.352778"
     id="path8" />
  <path
     d="m 51.318315,2.778125 c -0.507118,0 -0.974618,0.1252296 -1.400432,0.3746541 -0.427191,0.2508029 -0.764467,0.5885951 -1.013891,1.0144084 -0.250803,0.4271916 -0.375171,0.892797 -0.375171,1.3999146 v 2.778125 h 0.562239 v -2.778125 c -0.0083,-0.2935219 0.04583,-0.5756755 0.160197,-0.8485271 0.113002,-0.2714731 0.275263,-0.5129749 0.484725,-0.7224365 0.209461,-0.2094616 0.449585,-0.3703477 0.722437,-0.4847249 0.271473,-0.1129992 0.558105,-0.171049 0.859896,-0.171049 z"
     style="fill:#1f1f1f;stroke-width:0.352778"
     id="path7" />
  <path
     d="m 20.025651,2.7786418 c -0.372724,7.303e-4 -0.728128,0.071875 -1.064018,0.2144572 -0.338996,0.1433157 -0.639238,0.3457156 -0.903821,0.6061645 -0.264582,0.2618267 -0.466982,0.5625844 -0.606164,0.9043376 -0.14056,0.3417531 -0.209806,0.6969433 -0.209806,1.063501 V 11.1125 h 1.113627 V 7.7943563 c 0.31557,0.2356443 0.666798,0.3954972 1.052649,0.4795573 0.385849,0.085438 0.771701,0.090951 1.157552,0.016536 0.385849,-0.073036 0.741729,-0.226343 1.069702,-0.4578532 C 21.961967,7.6010872 22.225001,7.3144541 22.423437,6.972701 22.621875,6.6309479 22.743143,6.2661116 22.78724,5.8761271 22.831337,5.4875209 22.792753,5.1016694 22.671484,4.718575 22.550217,4.336859 22.357291,4.000617 22.092708,3.7098511 21.828126,3.4204632 21.516516,3.1915363 21.160982,3.0261719 20.805772,2.8615958 20.427269,2.7794264 20.025651,2.7786418 Z m -0.07906,1.1146606 c 0.244494,-0.012984 0.483692,0.028938 0.718303,0.125057 0.311436,0.1295352 0.562412,0.3350358 0.749825,0.6175333 0.187412,0.2838754 0.281119,0.5935904 0.281119,0.9312094 0,0.2204858 -0.04255,0.4344268 -0.126607,0.6397542 -0.08544,0.2067057 -0.204294,0.3856786 -0.358634,0.5400187 -0.15434,0.1543401 -0.334691,0.2740576 -0.540019,0.3581177 -0.206705,0.085438 -0.418752,0.1271244 -0.639238,0.127124 -0.338997,0 -0.649228,-0.093707 -0.931726,-0.2811198 -0.283875,-0.187413 -0.489376,-0.4370105 -0.617533,-0.749825 -0.129536,-0.3114365 -0.15968,-0.6340701 -0.09353,-0.964799 0.06615,-0.3307289 0.217557,-0.6144332 0.457336,-0.8542114 0.2384,-0.2384003 0.523999,-0.3911907 0.854728,-0.4573365 0.08268,-0.016536 0.164482,-0.027195 0.24598,-0.031523 z"
     style="fill:#1f1f1f;stroke-width:0.352778"
     id="path6" />
  <path
     d="m 8.0806437,2.778125 c -0.5071176,0 -0.9741013,0.1252296 -1.3999145,0.3746541 C 6.2535376,3.403582 5.9157455,3.7413742 5.6663208,4.1671875 5.415518,4.5943791 5.2916667,5.0599845 5.2916667,5.5671021 v 2.778125 H 6.4052938 V 5.5671021 C 6.3970247,5.2584218 6.4655832,4.9707558 6.6088989,4.7020386 6.7522148,4.4346992 6.9561648,4.2223089 7.2207479,4.0679687 c 0.264583,-0.15434 0.5488042,-0.2315104 0.8547282,-0.2315104 0.3045461,0 0.5896284,0.07717 0.8542114,0.2315104 0.264583,0.1543402 0.4685332,0.3667305 0.611849,0.6340699 0.1433158,0.2687172 0.211012,0.5563832 0.2041219,0.8650635 v 2.778125 h 1.1131106 v -2.778125 c 0,-0.5071176 -0.12523,-0.972723 -0.374654,-1.3999146 C 10.233312,3.7413742 9.8955195,3.403582 9.4697062,3.1527791 9.0425146,2.9033546 8.5794928,2.778125 8.0806437,2.778125 Z"
     style="fill:#1f1f1f;stroke-width:0.352778"
     id="path5" />
  <path
     d="m 2.4696167,2.7559041 c -0.4561302,0 -0.8710928,0.076137 -1.2459188,0.2263428 C 0.8488719,3.1338308 0.55121506,3.3388146 0.33072917,3.5992635 0.11024328,3.8610902 0,4.1453115 0,4.4539917 0,4.9101219 0.20102157,5.2723742 0.60616455,5.5397135 1.0099293,5.8084308 1.6272916,6.0013566 2.4582479,6.1184896 c 0.4699104,0.059256 0.7940947,0.1293636 0.9704834,0.2092895 0.1763886,0.081304 0.2645833,0.1960263 0.2645833,0.342098 0,0.1474501 -0.1102433,0.2726796 -0.3307292,0.3746541 C 3.1420996,7.147884 2.8690751,7.210068 2.5466146,7.2321167 c -0.2949,0 -0.5004003,-0.00706 -0.6175334,-0.022221 C 1.6424496,7.1878476 1.3589175,7.1477119 1.0805542,7.0884562 0.85179994,7.0305789 0.64629964,6.9644328 0.46302083,6.8900187 L 0.04392497,7.8382812 c 0.26458306,0.1254015 0.53777986,0.2285824 0.82165527,0.3085084 0.28249746,0.081304 0.57016346,0.1364259 0.86506346,0.1653645 0.1240232,0.00827 0.3529503,0.019293 0.6836792,0.033073 0.4630204,0 0.8890072,-0.074242 1.2789917,-0.2258261 C 4.0819208,7.9691951 4.390602,7.765245 4.6193563,7.5075521 4.8467323,7.2512374 4.9609375,6.9671885 4.9609375,6.6585083 c 0,-0.3086803 -0.082682,-0.5732641 -0.2480469,-0.79375 C 4.5475262,5.6442724 4.2789804,5.462371 3.9082886,5.3190552 3.5362188,5.1757393 3.0425355,5.0684245 2.425175,4.9940104 2.0503489,4.9361331 1.7613051,4.8550007 1.5601115,4.7516479 1.35754,4.6496734 1.2567708,4.5239271 1.2567708,4.3764771 c 0,-0.1460718 0.112827,-0.2673393 0.3415813,-0.3638021 0.2273759,-0.095085 0.5140084,-0.1431438 0.8598958,-0.1431438 0.2425344,0 0.4039375,0.00844 0.4852417,0.022221 0.2866317,0.022049 0.5693022,0.063045 0.8490438,0.1209229 0.1391816,0.044097 0.2644112,0.08561 0.3746541,0.1214396 l 0.1322917,0.043925 0.407727,-0.9477458 C 4.5005005,3.1200509 4.2844927,3.0358181 4.0571167,2.9765625 3.7622166,2.8883682 3.4645598,2.8261841 3.1641479,2.7889771 3.0387466,2.7751969 2.8072357,2.7641725 2.4696167,2.7559041 Z"
     style="fill:#1f1f1f;stroke-width:0.352778"
     id="path4" />
  <path
     d="m 38.77231,0 v 8.3565959 h 0.551388 V 6.35 l 0.407727,-0.396875 2.38125,2.38125 h 0.782898 L 40.117448,5.55625 42.884721,2.7889771 H 42.101823 L 39.323698,5.55625 V 0 Z"
     style="fill:#1f1f1f;stroke-width:0.352778"
     id="path3" />
</svg>
