<svg width="317.655" height="108.157" xmlns="http://www.w3.org/2000/svg"><g fill="#363636"><path d="M153.338 89.756l.506 1.268c.278.697 1.425 3.426 2.547 6.066 1.122 2.64 2.052 4.98 2.066 5.2.015.22-.473 1.563-1.084 2.986-.61 1.422-1.11 2.654-1.11 2.734 0 .081.535.147 1.19.147.91 0 1.258-.125 1.471-.524.216-.403 6.745-16.015 7.398-17.543.28-.463-.245-.334-1.21-.334h-1.342l-1.793 4.6c-.986 2.53-1.869 4.689-1.963 4.797-.094.108-1.05-1.961-2.123-4.6l-1.951-4.797h-1.301zM138.662 83.89v18.933h1.201c1.103 0 1.2-.054 1.2-.666 0-.812.083-.82 1.06-.098.424.314 1.327.836 2.055.916 1.653.182 1.658.186 3.22.022 2.996-.315 4.783-2.979 5.06-6.022.268-2.961-1.361-5.898-3.897-7.023-2.184-.97-5.324-.547-6.895.93l-.603.568v-7.56h-1.2zm6.752 7.822c.134-.004.267-.001.4.008 1.778.12 3.475 1.347 4.077 3.357.56 1.872-.339 4.136-2.03 5.111-4.829 2.786-9.32-3.726-5.115-7.418a4.18 4.18 0 012.668-1.058z"/></g><g fill="#363636"><path d="M192.274 95.538c0-4.245 3.38-7.607 7.654-7.607 4.242 0 7.654 3.36 7.654 7.607 0 4.245-3.412 7.576-7.654 7.576-4.272 0-7.654-3.331-7.654-7.576zm7.654 4.54c2.461 0 4.42-1.976 4.42-4.54 0-2.595-1.959-4.57-4.42-4.57-2.522 0-4.42 1.975-4.42 4.57s1.898 4.54 4.42 4.54zM208.337 88.315h2.76v-3.832h3.292v3.832h3.886v2.86h-3.886v6.486c0 1.473.743 2.211 2.136 2.211h1.75v2.86h-2.165c-3.323 0-5.014-1.533-5.014-4.835v-6.722h-2.76zM220.943 88.315h3.53v1.297c1.187-1.208 2.76-1.68 4.005-1.68 1.84 0 3.352.853 4.272 2.269 1.157-1.445 3.084-2.27 5.101-2.27 3.294 0 5.43 2.24 5.43 5.808v8.991h-3.294v-8.224c0-2.183-1.097-3.538-2.966-3.538-1.63 0-3.264 1.12-3.264 3.567v8.195h-3.293v-8.224c0-2.212-1.157-3.538-3.085-3.538-1.63 0-3.145 1.18-3.145 3.803v7.96h-3.293V88.314zM245.415 98.693c0-2.83 2.374-4.804 6.823-4.804h2.61v-.355c0-1.799-1.096-2.918-2.965-2.918-1.602 0-2.937 1.003-3.056 2.477h-3.293c.148-3.037 2.789-5.16 6.407-5.16 3.857 0 6.23 2.33 6.23 5.898v8.902h-3.233v-1.503c-.949 1.12-2.55 1.886-4.123 1.886-3.264 0-5.4-1.739-5.4-4.421zm5.667 1.857c2.165 0 3.856-1.739 3.856-4.008v-.236h-2.61c-2.404 0-3.68.795-3.68 2.298 0 1.15.861 1.946 2.432 1.946zM259.657 88.315h2.759v-3.832h3.293v3.832h3.886v2.86h-3.886v6.486c0 1.473.742 2.211 2.136 2.211h1.75v2.86h-2.165c-3.323 0-5.014-1.533-5.014-4.835v-6.722h-2.76zM271.547 82.125h3.5v3.625h-3.5zm3.412 6.19v14.416h-3.293V88.316zM277.213 95.538c0-4.334 3.352-7.607 7.594-7.607 3.5 0 6.468 2.359 6.912 5.543h-3.352c-.327-1.385-1.869-2.477-3.619-2.477-2.431 0-4.3 1.917-4.3 4.54 0 2.594 1.869 4.51 4.3 4.51 1.75 0 3.294-1.062 3.648-2.596h3.323c-.386 3.36-3.381 5.66-6.912 5.66-4.242 0-7.594-3.243-7.594-7.575zM293.528 98.309h3.145c.119 1.327 1.216 2.24 2.878 2.24 1.63 0 2.58-.795 2.58-1.857 0-3.065-8.336-.914-8.336-6.28 0-2.713 2.283-4.48 5.428-4.48 3.175 0 5.548 1.533 5.845 4.42h-3.233c-.178-1.09-1.216-1.946-2.64-1.946-1.217 0-2.314.531-2.314 1.681 0 2.86 8.455.62 8.455 6.22 0 2.83-2.373 4.805-5.785 4.805s-5.784-1.768-6.022-4.805zM180.631 82.095h-6.822v3.274l7.03-.003c3.828 0 6.587 3.007 6.587 6.958 0 4.068-2.788 7.134-6.586 7.134h-3.56V95.76h-3.471v6.97h6.822c5.992 0 10.354-4.423 10.354-10.407 0-5.866-4.362-10.229-10.354-10.229z"/><path d="M177.276 92.283v-3.455H173.8v3.455z"/></g><g fill="#d90012"><path d="M70.953 69.82c-2.58 0-4.922-.595-7.026-1.786-2.065-1.191-3.692-2.858-4.883-5.002-1.191-2.144-1.787-4.585-1.787-7.324h7.027c0 2.263.615 4.108 1.846 5.538 1.23 1.389 2.838 2.084 4.823 2.084 1.826 0 3.315-.556 4.466-1.667 1.151-1.152 1.727-2.6 1.727-4.347 0-1.35-.357-2.442-1.072-3.276-.675-.833-1.548-1.468-2.62-1.905-1.072-.476-2.52-.992-4.347-1.548-2.421-.754-4.386-1.489-5.895-2.203-1.469-.715-2.74-1.866-3.81-3.454-1.073-1.588-1.609-3.712-1.609-6.371 0-2.303.517-4.367 1.549-6.193a11.013 11.013 0 014.406-4.228c1.905-1.032 4.05-1.548 6.431-1.548 2.58 0 4.843.575 6.788 1.726a11.01 11.01 0 014.526 4.705c1.072 1.984 1.608 4.247 1.608 6.788h-6.967c-.04-1.945-.616-3.533-1.727-4.764-1.112-1.27-2.54-1.905-4.288-1.905-1.587 0-2.917.496-3.99 1.488-1.031.993-1.547 2.223-1.547 3.692 0 1.31.337 2.362 1.012 3.156a6.855 6.855 0 002.5 1.846c1.033.437 2.442.893 4.229 1.37 2.46.635 4.466 1.33 6.014 2.084 1.548.714 2.878 1.925 3.99 3.632 1.15 1.667 1.726 3.97 1.726 6.908 0 2.421-.575 4.585-1.727 6.49-1.111 1.906-2.66 3.394-4.644 4.466-1.985 1.032-4.228 1.548-6.729 1.548zM88.126 39.928h6.49v2.977a11.477 11.477 0 013.87-2.739 11.135 11.135 0 014.705-1.012c2.263 0 4.267.536 6.014 1.608 1.747 1.071 3.097 2.6 4.05 4.585.992 1.985 1.488 4.307 1.488 6.967v16.732h-6.67V52.492c0-2.104-.575-3.83-1.726-5.18-1.151-1.35-2.72-2.025-4.704-2.025-2.025 0-3.692.695-5.002 2.084-1.27 1.35-1.906 3.176-1.906 5.479v16.196h-6.61zM129.535 69.82c-3.295 0-5.935-.814-7.92-2.441-1.945-1.628-2.918-3.791-2.918-6.49 0-2.938 1.191-5.28 3.573-7.027 2.382-1.787 5.756-2.68 10.123-2.68h5.24v-.714c0-1.826-.536-3.256-1.608-4.288-1.032-1.071-2.48-1.607-4.347-1.607-1.627 0-3.037.476-4.227 1.429-1.152.913-1.787 2.104-1.906 3.572h-6.61c.08-2.024.675-3.83 1.787-5.418 1.151-1.588 2.68-2.819 4.585-3.692 1.945-.873 4.109-1.31 6.49-1.31 3.851 0 6.888 1.092 9.111 3.275 2.263 2.144 3.394 5.022 3.394 8.634v17.983h-6.49V66.01c-.953 1.152-2.184 2.085-3.692 2.8-1.509.674-3.037 1.011-4.585 1.011zm-4.347-9.11c0 1.19.417 2.143 1.25 2.858.874.714 2.084 1.072 3.633 1.072 2.183 0 4.009-.774 5.478-2.322 1.508-1.549 2.263-3.474 2.263-5.776v-.477h-5.24c-2.422 0-4.268.397-5.538 1.191-1.23.794-1.846 1.945-1.846 3.454zM149.086 39.928h6.61v2.977c1.23-1.19 2.68-2.104 4.347-2.739a14.448 14.448 0 015.36-1.012c2.738 0 5.24.655 7.502 1.965 2.262 1.31 4.05 3.116 5.359 5.419 1.31 2.302 1.965 4.922 1.965 7.86 0 2.937-.655 5.577-1.965 7.92-1.31 2.342-3.097 4.188-5.359 5.537-2.262 1.31-4.764 1.965-7.503 1.965-1.866 0-3.652-.317-5.36-.952-1.666-.675-3.115-1.608-4.346-2.8v14.173h-6.61zm6.61 14.589c0 1.707.397 3.255 1.19 4.644a8.782 8.782 0 003.276 3.216c1.39.754 2.918 1.131 4.585 1.131 1.628 0 3.116-.397 4.466-1.19a8.792 8.792 0 003.275-3.216c.795-1.39 1.191-2.918 1.191-4.585 0-1.707-.396-3.236-1.19-4.585a8.24 8.24 0 00-3.276-3.216c-1.35-.794-2.838-1.19-4.466-1.19-1.667 0-3.196.376-4.585 1.13a8.232 8.232 0 00-3.275 3.216c-.794 1.35-1.191 2.898-1.191 4.645z"/></g><path d="M203.642 69.82c-3.93 0-7.503-.933-10.718-2.798-3.217-1.906-5.736-4.486-7.563-7.741-1.826-3.295-2.739-6.967-2.739-11.017 0-4.009.934-7.661 2.8-10.956 1.905-3.335 4.485-5.955 7.74-7.86 3.255-1.906 6.848-2.858 10.778-2.858 3.255 0 6.173.615 8.752 1.846 2.621 1.19 4.784 2.818 6.492 4.882 1.746 2.065 2.976 4.347 3.692 6.848h-7.683c-.952-2.104-2.5-3.81-4.643-5.12-2.104-1.31-4.368-1.966-6.788-1.966-2.542 0-4.884.655-7.027 1.965-2.105 1.27-3.792 3.057-5.062 5.36-1.27 2.302-1.905 4.882-1.905 7.74 0 2.898.616 5.498 1.846 7.801 1.231 2.303 2.917 4.128 5.06 5.478 2.144 1.31 4.566 1.965 7.266 1.965 2.38 0 4.485-.496 6.312-1.488 1.865-.993 3.314-2.323 4.347-3.99a11.723 11.723 0 001.846-5.478h-12.862v-6.431h19.947c.12.952.178 1.985.178 3.096 0 3.771-.853 7.245-2.559 10.42-1.668 3.137-4.03 5.638-7.087 7.504-3.057 1.865-6.53 2.798-10.42 2.798zM240.9 69.82c-2.857 0-5.439-.655-7.74-1.965a14.783 14.783 0 01-5.36-5.478c-1.271-2.303-1.906-4.823-1.906-7.562 0-2.898.695-5.538 2.085-7.92 1.389-2.422 3.254-4.307 5.597-5.657 2.342-1.39 4.863-2.084 7.563-2.084 2.659 0 5.06.635 7.204 1.905 2.183 1.231 3.891 2.918 5.122 5.062 1.27 2.143 1.905 4.525 1.905 7.145 0 .834-.079 1.826-.239 2.978h-22.746c.318 2.421 1.29 4.347 2.918 5.776 1.667 1.429 3.672 2.143 6.014 2.143 1.746 0 3.275-.397 4.585-1.19 1.31-.795 2.163-1.847 2.561-3.157h6.55c-.716 2.938-2.362 5.34-4.943 7.206-2.54 1.865-5.598 2.798-9.17 2.798zm7.681-18.995c-.118-1.707-.892-3.136-2.322-4.287-1.388-1.152-3.096-1.727-5.12-1.727-1.868 0-3.553.556-5.062 1.667-1.509 1.072-2.581 2.52-3.216 4.347zM259.215 39.928h6.49v2.977a11.498 11.498 0 013.87-2.739 11.14 11.14 0 014.705-1.012c2.262 0 4.267.536 6.014 1.608 1.746 1.071 3.097 2.6 4.05 4.585.992 1.985 1.488 4.307 1.488 6.967v16.732h-6.669V52.492c0-2.104-.576-3.83-1.726-5.18-1.152-1.35-2.721-2.025-4.705-2.025-2.026 0-3.692.695-5.002 2.084-1.27 1.35-1.905 3.176-1.905 5.479v16.196h-6.61zM303.185 69.82c-2.86 0-5.44-.655-7.741-1.965a14.787 14.787 0 01-5.36-5.478c-1.27-2.303-1.906-4.823-1.906-7.562 0-2.898.695-5.538 2.084-7.92 1.39-2.422 3.256-4.307 5.597-5.657 2.343-1.39 4.865-2.084 7.563-2.084 2.66 0 5.062.635 7.205 1.905 2.184 1.231 3.892 2.918 5.12 5.062 1.272 2.143 1.908 4.525 1.908 7.145 0 .834-.081 1.826-.239 2.978H294.67c.317 2.421 1.289 4.347 2.916 5.776 1.668 1.429 3.673 2.143 6.014 2.143 1.748 0 3.275-.397 4.587-1.19 1.31-.795 2.162-1.847 2.559-3.157h6.55c-.714 2.938-2.362 5.34-4.942 7.206-2.54 1.865-5.597 2.798-9.17 2.798zm7.681-18.995c-.12-1.707-.894-3.136-2.322-4.287-1.39-1.152-3.097-1.727-5.122-1.727-1.866 0-3.553.556-5.062 1.667-1.507 1.072-2.58 2.52-3.215 4.347z"/><path fill-rule="evenodd" clip-rule="evenodd" d="M33.88 5.35H0V0h33.88a6.241 6.241 0 016.24 6.241v.577a6.559 6.559 0 011.644-.208h2.063a6.547 6.547 0 016.547 6.547v17.22a6.547 6.547 0 01-6.547 6.547h-2.063a6.555 6.555 0 01-1.644-.208v5.188h-5.349V6.24c0-.492-.4-.892-.891-.892zm-3.714 4.457H3.419v38.838c0 1.147.15 2.29.448 3.397l6.925 25.775a3.273 3.273 0 003.161 2.424h5.679c1.48 0 2.777-.994 3.161-2.424l6.924-25.775a13.09 13.09 0 00.449-3.397z" fill="#1dafb8"/></svg>