<?xml version="1.0" encoding="UTF-8"?>
<!-- Generator: Adobe Illustrator 26.3.1, SVG Export Plug-In . SVG Version: 6.00 Build 0)  -->
<svg id="logo" width="187.44" height="38.935" version="1.1" viewBox="0 0 187.44 38.935" xml:space="preserve" xmlns="http://www.w3.org/2000/svg">
<style type="text/css">
	.st0{fill:none;}
	.st1{fill:#FFFFFF;}
</style>
<path class="st1" d="m28.82 34.971c2.49 0 3.85-1.66 3.85-3.98v-11.84h5.3v12.11c-0.05 5.33-4.32 7.42-9.15 7.42s-9.09-2.09-9.15-7.42v-12.11h5.3v11.84c0.01 2.32 1.36 3.98 3.85 3.98z"/><polygon class="st1" transform="translate(-75.73 -184.72)" points="86.97 207.58 92.91 207.58 92.91 203.87 75.73 203.87 75.73 207.58 81.67 207.58 81.67 223 86.97 223"/><path class="st1" d="m18.68 9.8306c-1.29 0.41-2.63 0.08-2.62-1.65 0-2.64 6.19-4.85 7.05-7.15 0.21-0.57 0.23-1.05-0.05-1.03-0.2 0.01-0.04 0.3-0.48 0.73-2.56 2.57-6.86 2.56-10.16 4.04-2.16 0.97-8.5 3.95-7.04 10.6 0.07 0.32 0.26 1.37 0.45 1.37 0.22 0 0.22-0.63 0.22-1.39-0.05-3.96 4.64-5.06 6.17-7.65 0.18-0.31 0.5-0.74 0.57-0.54 0.04 0.1 0.01 0.24-0.05 0.52-0.48 2.13-2.7 3.49-2.07 5.01 0.82 1.97 3.17 0.5 3.9-0.77 0.19-0.35 0.3-0.57 0.43-0.53 0.1 0.03 0.09 0.43 0.03 0.79-0.39 2.29-0.91 3.57-2.59 4.88-0.54 0.42-1.38 0.5-1.27 0.82 0.03 0.08 0.39 0.07 0.68 0.04 4.46-0.29 8.19-5.54 9.18-8.98 0.1-0.24 0.13-0.47 0.03-0.55-0.13-0.1-0.33 0.13-0.53 0.31-0.51 0.46-1.21 0.93-1.85 1.13z"/><path class="st1" d="m63.94 30.361c0.02-2.08 1.27-3.95 3.37-3.95 2.44 0 3.39 1.67 3.39 3.95zm9.42 1.75v-1.25c0-3.68-2.09-6.28-5.86-6.28-4.21 0-6.18 3.26-6.18 7.16 0 3.92 1.7 6.95 5.97 6.95 3.18 0 5.51-1.51 5.91-4.53h-2.65c-0.29 1.93-1.27 2.7-3.23 2.7-2.57 0-3.43-2.29-3.43-4.74h9.47z"/><rect class="st1" x="76.41" y="19.151" width="2.52" height="19.13"/><path class="st1" d="m86.83 38.281v-11.55h3.07v-1.75h-3.07v-2.15c0-1.54 0.74-1.8 2.17-1.8 0.42 0 0.85 0.05 1.27 0.08v-2.09c-0.59-0.13-1.19-0.27-1.8-0.27-2.38 0-4.16 1.2-4.16 3.74v2.49h-2.6v1.75h2.6v11.55z"/><path class="st1" d="m91.34 24.981v1.75h2.28v8.48c0 1.77 0.03 3.47 3.77 3.47 0.58 0 1.13-0.05 1.72-0.16v-1.93c-0.41 0.1-0.93 0.16-1.33 0.16-0.9 0-1.64-0.45-1.64-1.4v-8.61h3.07v-1.75h-3.07v-3.63l-2.52 0.79v2.84z"/><path class="st1" d="m43.27 38.281h6.57c8.18 0 9.04-6.93 9.04-9.57s-0.86-9.57-9.04-9.57h-6.57zm2.65-16.85h3.92c4.42 0 6.26 3.34 6.26 7.29s-1.84 7.29-6.26 7.29h-3.92z"/>
<path d="m118.72 19.815h4.0533v3.1467h-4.0533zm0 5.04h4.0533v13.787h-4.0533zm19.973-0.10667q-0.08-0.34667-0.4-0.64-0.32-0.32-0.8-0.50667-0.45333-0.21333-1.0133-0.32-0.56001-0.13333-1.12-0.13333-1.2267 0-2.1333 0.45333-0.88 0.45333-1.4667 1.28-0.58667 0.8-0.88 1.8933-0.26667 1.0933-0.26667 2.3733 0 1.28 0.24 2.3733t0.74667 1.92q0.53333 0.8 1.3333 1.2533 0.82667 0.45333 2 0.45333 0.96 0 1.7333-0.26667 0.77334-0.26667 1.3333-0.69333 0.56-0.45333 0.85333-1.04 0.32-0.61333 0.32-1.28v-1.28h-4.4267v-3.3067h8.9867v11.36h-4.24l-0.18666-1.9733q-0.26667 0.42667-0.69334 0.85334-0.42667 0.4-1.0133 0.72-0.58667 0.32-1.3333 0.50667-0.72 0.18667-1.6 0.18667-2.3733 0-4.0267-0.8-1.6533-0.82667-2.6933-2.1867-1.04-1.36-1.52-3.12-0.45333-1.76-0.45333-3.68 0-1.92 0.56-3.7067t1.7067-3.1467q1.1733-1.3867 2.9333-2.2133 1.76-0.85334 4.1867-0.85334 1.76 0 3.2 0.4 1.4667 0.4 2.5333 1.12 1.0667 0.72 1.7333 1.76 0.66667 1.0133 0.82667 2.24zm9.44-4.9333h13.653v3.7067h-8.96v3.4933h8.3467v3.5733h-8.3467v4.3467h9.7867v3.7067h-14.48zm30.72 18.827h-5.1733l-3.44-15.253h-0.21333l-0.16 15.253h-4.56l0.58666-18.827h7.52l2.1067 9.3867q0.26667 1.2 0.42667 2.16t0.24 1.6533q0.10667 0.8 0.13333 1.3867h0.10667q0.0267-0.58667 0.13333-1.3867 0.08-0.69333 0.21334-1.6267 0.16-0.96 0.45333-2.16l2.1333-9.4133h7.4933l0.58667 18.827h-4.5067l-0.16-15.253h-0.21333z" fill="#fff" stroke-linecap="round" stroke-linejoin="round" aria-label="iGEM"/></svg>
